<?xml version="1.0" encoding="UTF-8" standalone="no"?>
<!-- Created with Inkscape (http://www.inkscape.org/) -->

<svg
   xmlns:dc="http://purl.org/dc/elements/1.1/"
   xmlns:cc="http://creativecommons.org/ns#"
   xmlns:rdf="http://www.w3.org/1999/02/22-rdf-syntax-ns#"
   xmlns:svg="http://www.w3.org/2000/svg"
   xmlns="http://www.w3.org/2000/svg"
   xmlns:sodipodi="http://sodipodi.sourceforge.net/DTD/sodipodi-0.dtd"
   xmlns:inkscape="http://www.inkscape.org/namespaces/inkscape"
   width="98.7304mm"
   height="98.743172mm"
   viewBox="0 0 98.7304 98.743169"
   version="1.1"
   id="svg8"
   sodipodi:docname="favison.svg"
   inkscape:version="0.92.4 (5da689c313, 2019-01-14)"
   inkscape:export-filename="C:\Users\freew\OneDrive\Desktop\newlogo.png"
   inkscape:export-xdpi="96"
   inkscape:export-ydpi="96">
  <defs
     id="defs2" />
  <sodipodi:namedview
     id="base"
     pagecolor="#ffffff"
     bordercolor="#666666"
     borderopacity="1.0"
     inkscape:pageopacity="0"
     inkscape:pageshadow="2"
     inkscape:zoom="0.0875"
     inkscape:cx="2952.1829"
     inkscape:cy="2321.5442"
     inkscape:document-units="mm"
     inkscape:current-layer="layer1"
     showgrid="false"
     inkscape:window-width="2400"
     inkscape:window-height="1261"
     inkscape:window-x="2391"
     inkscape:window-y="-9"
     inkscape:window-maximized="1"
     inkscape:pagecheckerboard="true"
     fit-margin-top="5"
     fit-margin-bottom="5"
     fit-margin-right="5"
     fit-margin-left="5" />
  <metadata
     id="metadata5">
    <rdf:RDF>
      <cc:Work
         rdf:about="">
        <dc:format>image/svg+xml</dc:format>
        <dc:type
           rdf:resource="http://purl.org/dc/dcmitype/StillImage" />
        <dc:title />
      </cc:Work>
    </rdf:RDF>
  </metadata>
  <g
     inkscape:label="Layer 1"
     inkscape:groupmode="layer"
     id="layer1"
     transform="translate(-1.8405497,-2.9138545)">
    <path
       id="path3724-1"
       style="fill:#080808;fill-opacity:1;stroke-width:0.10169838"
       d="m 47.111614,7.9152784 c -0.76266,0.01767 -1.56519,0.202068 -1.92444,0.500745 -0.4281,0.355923 -0.60316,0.882354 -0.865577,2.6003576 -0.36617,2.39713 -0.887161,3.922019 -1.888773,5.526277 -0.450588,0.721727 -0.853448,1.023883 -2.031918,1.526005 -1.452859,0.619033 -2.07409,0.738172 -3.27215,0.627869 -1.37723,-0.126798 -2.00515,-0.388041 -3.301089,-1.374593 -0.085,-0.06471 -0.300789,-0.216602 -0.479558,-0.337447 -0.292121,-0.19747 -1.387091,-1.167592 -1.49965,-1.328601 -0.133141,-0.19045 -1.692892,-1.48424 -1.927532,-1.598869 -0.15132,-0.07393 -0.411795,-0.146894 -0.578776,-0.162264 -0.6741,-0.06206 -2.220352,0.772525 -2.636531,1.423169 -0.31887,0.498516 -0.269737,1.527722 0.138491,2.891296 0.190222,0.635391 0.415547,1.506673 0.500745,1.9358 0.0852,0.429126 0.183142,0.920803 0.217041,1.092439 0.13014,0.659063 0.129992,1.870535 0,2.59829 -0.235778,1.320068 -0.51021,1.798908 -1.61127,2.807578 -0.535631,0.49069 -1.100395,1.03465 -1.254705,1.20871 -0.570939,0.64401 -1.966026,0.98664 -3.496426,0.85887 -1.483601,-0.12386 -2.46715,-0.33089 -3.85713,-0.81236 -0.935959,-0.32419 -1.410595,-0.43651 -1.949233,-0.46043 -0.867061,-0.0385 -1.134838,0.0979 -1.750799,0.89193 -0.534029,0.68844 -0.730731,1.10362 -0.78083,1.64745 -0.0657,0.71352 0.215056,1.20026 1.608688,2.78949 1.646708,1.87784 2.593888,3.41554 3.016869,4.89789 0.13584,0.47596 0.132215,0.54928 -0.04238,0.91519 -0.350779,0.73531 -1.093676,2.74529 -1.650029,4.46433 -0.0802,0.24782 -1.428689,1.11174 -2.116148,1.35547 -1.41292,0.50095 -2.302078,0.71858 -3.39566,0.83199 -0.8181895,0.0849 -2.2700875,0.44396 -2.6081095,0.64492 -0.428,0.25447 -0.689932,0.89735 -0.791683,1.94304 -0.0665,0.68338 -0.0521,1.00353 0.0553,1.25109 0.206111,0.47537 1.02689,1.09443 1.990058,1.50068 1.7892215,0.75466 2.3336605,1.01738 3.1496805,1.5198 0.91046,0.56057 1.768435,1.21534 2.005047,1.53066 0.0957,0.12751 0.17359,0.71149 0.22479,1.68207 0.0431,0.81755 0.149778,1.99825 0.23668,2.62413 0.364628,2.62564 0.364702,2.38271 -0.0052,2.93522 -0.605068,0.90344 -1.951,2.11244 -3.65714,3.28507 -1.5008415,1.03152 -1.8653605,1.56858 -1.6991225,2.50424 0.333222,1.87544 1.0776985,2.53137 2.7745085,2.44378 0.456261,-0.0236 1.106276,-0.0521 1.444358,-0.0636 0.771279,-0.0264 3.86651,0.25958 4.217829,0.38964 0.177519,0.0657 0.343474,0.2771 0.515215,0.65681 0.238119,0.52649 1.205367,2.18541 1.616437,2.77244 0.10224,0.14599 0.338998,0.53556 0.526066,0.86558 0.187082,0.33001 0.618339,1.01374 0.958599,1.51981 0.56194,0.83586 0.608462,0.94784 0.510563,1.22163 -0.0593,0.16577 -0.247827,0.7024 -0.419097,1.19217 -0.288779,0.82583 -0.60506,1.49974 -1.218528,2.59416 -1.101521,1.96509 -1.152374,2.43142 -0.374655,3.443722 0.290859,0.3786 0.709334,0.77516 1.014926,0.96118 0.476578,0.29014 0.564345,0.31123 1.043347,0.25373 0.611018,-0.0733 1.49788,-0.42247 2.334741,-0.91932 0.326801,-0.19403 0.713825,-0.40319 0.859896,-0.46458 1.176798,-0.494572 2.083726,-0.829722 2.560566,-0.946192 0.66412,-0.1622 0.800849,-0.10168 1.646928,0.72812 0.33011,0.323772 1.479635,1.094302 3.199805,2.145092 2.650781,1.61944 2.683899,1.64374 2.641698,1.94252 -0.0236,0.1664 -0.006,0.73254 0.03928,1.2578 0.0454,0.52527 0.06868,1.56101 0.05168,2.30219 -0.0176,0.74118 -0.01847,1.4411 -0.0021,1.55494 0.016,0.11384 0.02409,0.30134 0.01809,0.41703 -0.006,0.11569 0.127979,0.40795 0.298691,0.64905 0.256918,0.36283 0.451466,0.49788 1.128096,0.78394 1.485691,0.62812 1.951199,0.45474 3.218407,-1.19735 0.806561,-1.05153 2.495566,-3.13487 2.698028,-3.32796 0.0446,-0.0426 0.52252,0.017 1.06195,0.13229 0.539419,0.11534 2.509585,0.36582 4.378025,0.55656 1.86845,0.19072 3.47578,0.35772 3.57188,0.37103 0.1056,0.0146 0.26213,0.24413 0.39532,0.58033 0.49482,1.24902 1.8285,4.1919 2.00194,4.4173 0.10226,0.13289 0.36536,0.3533 0.58446,0.48989 h 5.3e-4 c 0.80225,0.50014 2.78495,0.29712 3.2892,-0.33693 0.0935,-0.11754 0.20926,-0.39279 0.25736,-0.61184 0.51977,-2.3678 1.12807,-4.59604 1.34461,-4.92425 0.0671,-0.10167 0.13197,-0.29359 0.14417,-0.42633 0.0189,-0.20487 0.1124,-0.26075 0.61857,-0.37052 0.32795,-0.0711 0.64408,-0.1335 0.70228,-0.1385 0.0582,-0.005 0.33237,-0.087 0.60979,-0.18241 0.27741,-0.0954 0.79719,-0.2494 1.15496,-0.3421 0.35779,-0.0927 1.64425,-0.552 2.85874,-1.02113 1.45362,-0.56149 2.24526,-0.81762 2.31614,-0.74931 0.0592,0.0571 0.34546,0.2611 0.63666,0.45372 0.90006,0.59535 1.28606,0.8783 1.57872,1.15652 2.26872,2.15696 3.22837,2.45335 4.75009,1.46864 0.56113,-0.3631 0.9692,-0.91544 1.01079,-1.36735 0.0439,-0.47734 -0.11277,-1.42143 -0.39532,-2.38125 -0.31051,-1.05466 -0.52035,-2.38933 -0.55345,-3.520202 l -0.015,-0.51367 1.01854,-0.87488 c 0.55999,-0.48115 1.22481,-1.10242 1.47796,-1.38079 0.25315,-0.27837 0.54168,-0.57381 0.64079,-0.65629 0.2349,-0.19547 1.29625,-1.34685 1.91461,-2.07688 l 0.48678,-0.57464 1.2914,0.11989 c 1.15472,0.10692 3.35217,0.58412 3.62096,0.78651 0.0473,0.0356 0.47077,0.10454 0.94104,0.15297 1.31935,0.13586 1.87376,-0.16442 2.59673,-1.4056 0.60267,-1.03459 0.47003,-1.53589 -0.81235,-3.07216 -1.67566,-2.00744 -2.88319,-3.84712 -2.83911,-4.32584 0.007,-0.0778 0.15483,-0.47215 0.32816,-0.87592 0.5493,-1.27981 1.19068,-3.14683 1.68775,-4.91287 0.2535,-0.90067 0.26252,-0.91517 0.74568,-1.1989 0.49336,-0.28972 2.40866,-0.99559 2.6448,-0.97461 0.0701,0.006 0.86275,-0.13047 1.76114,-0.30335 2.61128,-0.50248 2.9759,-0.78816 3.20136,-2.50785 0.1148,-0.87576 0.10787,-0.99175 -0.0811,-1.33325 -0.31882,-0.57592 -0.67074,-0.8021 -2.40657,-1.54823 -0.88405,-0.37998 -2.06345,-0.97759 -2.62104,-1.32757 -1.14652,-0.71965 -2.00004,-1.5714 -1.96421,-1.96008 0.0336,-0.36467 -0.38815,-4.50438 -0.51782,-5.0829 -0.10401,-0.46405 -0.0958,-0.53857 0.10544,-0.94826 0.50369,-1.02531 1.85698,-2.36288 3.64731,-3.60546 1.87375,-1.30048 2.40379,-1.94665 2.36368,-2.87942 -0.0317,-0.73696 -0.518,-1.85785 -0.94721,-2.18281 -0.47101,-0.3566 -1.40526,-0.46481 -2.92851,-0.33848 -0.88863,0.0738 -1.44868,0.0532 -2.77969,-0.10283 -2.50891,-0.29406 -3.0842,-0.60879 -3.94393,-2.1575 -0.27991,-0.50422 -0.63535,-1.0913 -0.78962,-1.30483 -0.15428,-0.21352 -0.45649,-0.67227 -0.67181,-1.01957 -0.37796,-0.60971 -0.39039,-0.66128 -0.35758,-1.49397 0.0634,-1.60961 0.57996,-3.0135 2.13473,-5.80223 0.7706,-1.382139 0.86138,-1.677054 0.73639,-2.396234 -0.0822,-0.472834 -0.92212,-1.523449 -1.48465,-1.856734 -0.79881,-0.473287 -1.6872,-0.288727 -3.35278,0.697116 -0.53467,0.316468 -1.59181,0.816885 -2.34921,1.112075 -1.48359,0.578234 -2.0788,0.672767 -3.45196,0.54777 -0.70496,-0.06417 -0.79732,-0.102148 -1.91823,-0.799433 -2.62649,-1.633826 -2.53153,-1.513944 -3.11661,-3.958415 l -0.33641,-1.404049 0.0977,-2.18643 c 0.13952,-3.132209 0.13521,-3.201202 -0.22323,-3.632336 -0.39843,-0.479221 -1.03862,-0.844826 -1.83761,-1.049031 -1.26537,-0.323401 -1.85142,0.100372 -4.00751,2.898014 -1.48092,1.921571 -2.35431,2.721044 -3.43029,3.13986 -0.74885,0.291487 -0.94121,0.320494 -2.14406,0.323494 -1.80337,0.0045 -2.85903,-0.37939 -4.09432,-1.488798 -1.23729,-1.1112 -1.80145,-2.054861 -2.97191,-4.971789 -0.70167,-1.7486246 -0.91932,-2.0795396 -1.51515,-2.3011516 -0.32452,-0.120703 -0.76818,-0.170284 -1.22576,-0.15968 z m 3.77082,13.6219056 c 1.03863,-0.0098 2.08803,0.03244 3.14451,0.12971 16.90375,1.556297 29.35512,16.534006 27.79882,33.437756 -1.55628,16.90374 -16.534,29.355112 -33.43775,27.79881 C 31.484268,81.34717 19.032908,66.36946 20.589197,49.46571 22.048218,33.61844 35.303004,21.684687 50.882434,21.537184 Z m 0.008,1.072288 C 35.846681,22.749926 23.066486,34.26004 21.657349,49.56545 20.15427,65.89121 32.159926,80.33223 48.485684,81.83531 c 16.32575,1.50308 30.76626,-10.50464 32.26936,-26.8304 1.50307,-16.32576 -10.50208,-30.766266 -26.82782,-32.269348 -1.02037,-0.09394 -2.03358,-0.135454 -3.03652,-0.12609 z"
       inkscape:connector-curvature="0"
       sodipodi:nodetypes="ccccssccscccccccccccccccccccccccccccccccccccccccccccccccccccccsccccccccccccccccsccccccccccccscccccccccccscccccccccscccccccccccccccccccssccccccccccssccsscccc" />
    <flowRoot
       xml:space="preserve"
       id="flowRoot4669"
       style="font-style:normal;font-weight:normal;font-size:40px;line-height:1.25;font-family:sans-serif;letter-spacing:0px;word-spacing:0px;fill:#000000;fill-opacity:1;stroke:none"><flowRegion
         id="flowRegion4671"><rect
           id="rect4673"
           width="107.58125"
           height="86.873116"
           x="279.81226"
           y="198.2301" /></flowRegion><flowPara
         id="flowPara4675" /></flowRoot>    <path
       style="fill:#59c990;fill-opacity:1;stroke:none;stroke-width:0.246887;stroke-linecap:butt;stroke-linejoin:miter;stroke-miterlimit:4;stroke-dasharray:none;stroke-opacity:1"
       d="M 24.433966,60.219622 67.205032,29.910254 52.751012,80.279551 43.545031,63.498943 Z"
       id="path4606"
       inkscape:connector-curvature="0"
       sodipodi:nodetypes="ccccc" />
    <path
       style="fill:#347956;fill-opacity:1;stroke:none;stroke-width:0.1112322;stroke-linecap:butt;stroke-linejoin:miter;stroke-miterlimit:4;stroke-dasharray:none;stroke-opacity:1"
       d="M 43.545031,63.498943 67.205032,29.910253 52.751012,80.279551 Z"
       id="path4623"
       inkscape:connector-curvature="0" />
  </g>
</svg>
