<?xml version="1.0" encoding="UTF-8" standalone="no"?>
<!-- Created with Inkscape (http://www.inkscape.org/) -->

<svg
   xmlns:dc="http://purl.org/dc/elements/1.1/"
   xmlns:cc="http://creativecommons.org/ns#"
   xmlns:rdf="http://www.w3.org/1999/02/22-rdf-syntax-ns#"
   xmlns:svg="http://www.w3.org/2000/svg"
   xmlns="http://www.w3.org/2000/svg"
   xmlns:sodipodi="http://sodipodi.sourceforge.net/DTD/sodipodi-0.dtd"
   xmlns:inkscape="http://www.inkscape.org/namespaces/inkscape"
   width="25"
   height="34.692982"
   id="svg2"
   version="1.1"
   inkscape:version="0.48.5 r10040"
   sodipodi:docname="groupRun.svg">
  <defs
     id="defs4" />
  <sodipodi:namedview
     id="base"
     pagecolor="#ffffff"
     bordercolor="#666666"
     borderopacity="1.0"
     inkscape:pageopacity="0.0"
     inkscape:pageshadow="2"
     inkscape:zoom="11.374158"
     inkscape:cx="13.94397"
     inkscape:cy="7.5888466"
     inkscape:document-units="px"
     inkscape:current-layer="layer1"
     showgrid="false"
     fit-margin-top="0"
     fit-margin-left="0"
     fit-margin-right="0"
     fit-margin-bottom="0"
     inkscape:window-width="1680"
     inkscape:window-height="975"
     inkscape:window-x="-9"
     inkscape:window-y="-9"
     inkscape:window-maximized="1" />
  <metadata
     id="metadata7">
    <rdf:RDF>
      <cc:Work
         rdf:about="">
        <dc:format>image/svg+xml</dc:format>
        <dc:type
           rdf:resource="http://purl.org/dc/dcmitype/StillImage" />
        <dc:title />
      </cc:Work>
    </rdf:RDF>
  </metadata>
  <g
     inkscape:label="Layer 1"
     inkscape:groupmode="layer"
     id="layer1"
     transform="translate(-143.28795,-637.53753)">
    <path
       style="color:#000000;fill:#00ff3b;fill-opacity:1;fill-rule:nonzero;stroke:none;stroke-width:2;marker:none;visibility:visible;display:inline;overflow:visible;enable-background:accumulate"
       d="m 155.81194,637.53753 c -6.21868,0 -12.52399,5.78288 -12.52399,12.52407 0,6.74104 9.63493,18.31678 12.52399,22.16891 2.88906,-3.85213 12.47601,-15.42787 12.47601,-22.16891 0,-6.74119 -6.25733,-12.52407 -12.47601,-12.52407 z m -0.38387,3.02311 c 0.72124,0 1.29558,0.57413 1.29558,1.29551 0,0.72124 -0.57434,1.29567 -1.29558,1.29567 -0.72125,0 -1.29559,-0.57443 -1.29559,-1.29567 0,-0.72138 0.57434,-1.29551 1.29559,-1.29551 z m -3.40691,1.15164 c 0.26117,0 0.52585,0.15355 0.6238,0.47984 l 0.47984,1.63148 5.08637,0 c 0.48748,0 0.5567,0.19609 0.6238,0.33582 l 1.05566,2.15938 c 0.0911,0.1881 0.096,0.35194 0.096,0.43179 0,0.0722 0.0221,0.13665 0,0.19194 l 4.75047,0 c 0.48749,0 0.60469,0.19623 0.67179,0.33596 l 1.05566,2.15924 c 0.0911,0.1881 0.096,0.35209 0.096,0.43194 0,0.57781 -0.79073,0.6251 -1.15163,0 0,0 -0.4971,-0.99287 -0.81574,-1.63148 l -1.00767,0 c 0.19306,0.9058 0.33589,2.50349 0.33589,3.26295 0,0.6529 0.70832,2.02841 1.82342,3.35893 0.59545,0.71078 0.0385,1.19954 -0.28791,1.19954 -0.46599,0 -0.81554,-0.57336 -1.15164,-1.0076 -0.91046,-1.17574 -1.67946,-2.87908 -1.67946,-2.87908 l -1.63148,0 c -0.1539,0 -0.49913,-0.0384 -0.33589,0.28791 l 1.00768,1.96729 c 0.32648,0.65275 -0.69061,1.64176 -1.34357,0.33597 l -0.95969,-1.96745 c -0.0186,-0.0368 -0.0321,-0.0599 -0.0479,-0.0952 -0.11639,0.1428 -0.2533,0.24 -0.38387,0.24 -0.46599,0 -0.86353,-0.57351 -1.19962,-1.00776 -0.91047,-1.17573 -1.67947,-2.87907 -1.67947,-2.87907 l -1.58349,0 c -0.15391,0 -0.49913,-0.0384 -0.33589,0.28791 l 0.95969,1.96745 c 0.32648,0.65274 -0.64262,1.64161 -1.29558,0.33581 l -0.86373,-1.77535 c -0.0138,-0.02 -0.0355,-0.0261 -0.0479,-0.0476 0,0 -0.0413,-0.13051 -0.0479,-0.14434 -0.0708,-0.14127 -0.43851,-0.87585 -0.71977,-1.43954 l -0.9597,0 c 0.18634,0.87417 0.28791,2.43394 0.28791,3.16699 0,0.63018 0.69913,1.93059 1.77543,3.21489 0.57473,0.68607 0.0272,1.19969 -0.2879,1.19969 -0.44977,0 -0.77925,-0.5884 -1.10365,-1.00775 -0.87879,-1.13474 -1.63148,-2.7831 -1.63148,-2.7831 l -1.58349,0 c -0.14848,0 -0.44547,-0.0277 -0.28791,0.2879 l 0.91171,1.91939 c 0.31512,0.63017 -0.61737,1.54825 -1.2476,0.28791 l -0.95969,-1.87133 c -0.63025,-1.26035 0.37742,-1.87147 1.00767,-1.87147 l 0.57582,0 c -0.11685,-0.96293 0.0863,-1.91295 -0.28791,-2.54312 l -1.05566,0 c -0.47054,0 -0.85013,0 -1.00768,-0.62388 l -0.33589,-1.2476 c -0.0459,-0.24767 -0.14388,-0.6443 -0.14388,-0.95969 0,-0.63001 0.91457,-0.63001 1.10365,0 l 0.47984,1.58357 4.89444,0 c 0.47052,0 0.55903,0.15355 0.6238,0.28791 l 0.33589,0.67178 c 0.21217,-0.1213 0.42472,-0.24 0.6238,-0.24 l 0.62381,0 c -0.121,-0.99762 0.0517,-1.93827 -0.3359,-2.59117 l -1.10364,0 c -0.4875,0 -0.84446,-0.0184 -1.00769,-0.67178 l -0.33589,-1.29551 c -0.0476,-0.25674 -0.19193,-0.63309 -0.19193,-0.95969 0,-0.32645 0.26664,-0.47985 0.52782,-0.47985 z m 9.93282,1.96729 c 0.72124,0 1.34357,0.57428 1.34357,1.29567 0,0.72122 -0.62233,1.2955 -1.34357,1.2955 -0.72125,0 -1.29559,-0.57428 -1.29559,-1.2955 0,-0.72139 0.57434,-1.29567 1.29559,-1.29567 z m -12.38004,0.14434 c 0.69614,0 1.2476,0.55109 1.2476,1.2476 0,0.69604 -0.55146,1.29551 -1.2476,1.29551 -0.69616,0 -1.2476,-0.59947 -1.2476,-1.29551 0,-0.69651 0.55144,-1.2476 1.2476,-1.2476 z m 7.4856,1.29551 c 0.19306,0.90579 0.33589,2.50349 0.33589,3.26295 0,0.6529 0.70834,2.02841 1.82342,3.35892 0.1511,-0.59945 0.75724,-0.91162 1.19962,-0.91162 l 0.57581,0 c -0.121,-0.99763 0.0517,-1.93828 -0.33589,-2.59118 l -1.05566,0 c -0.4875,0 -0.89244,-0.0184 -1.05566,-0.67178 l -0.3359,-1.29567 c -0.0476,-0.25673 -0.14387,-0.63308 -0.14387,-0.95969 0,-0.0153 -8.3e-4,-0.0322 0,-0.0476 -0.0282,-0.0568 -0.0218,-0.0921 -0.0479,-0.14433 l -0.95969,0 z"
       id="path7962-4-3-5-3-2"
       inkscape:connector-curvature="0" />
  </g>
</svg>
