<?xml version="1.0" encoding="UTF-8" standalone="no"?>
<!-- Created with Inkscape (http://www.inkscape.org/) -->

<svg
   xmlns:dc="http://purl.org/dc/elements/1.1/"
   xmlns:cc="http://creativecommons.org/ns#"
   xmlns:rdf="http://www.w3.org/1999/02/22-rdf-syntax-ns#"
   xmlns:svg="http://www.w3.org/2000/svg"
   xmlns="http://www.w3.org/2000/svg"
   xmlns:sodipodi="http://sodipodi.sourceforge.net/DTD/sodipodi-0.dtd"
   xmlns:inkscape="http://www.inkscape.org/namespaces/inkscape"
   width="20"
   height="27.692301"
   id="svg4460"
   version="1.1"
   inkscape:version="0.48.5 r10040"
   sodipodi:docname="peggy.svg">
  <defs
     id="defs4462" />
  <sodipodi:namedview
     id="base"
     pagecolor="#aaaaaa"
     bordercolor="#666666"
     borderopacity="1.0"
     inkscape:pageopacity="1"
     inkscape:pageshadow="2"
     inkscape:zoom="17.149842"
     inkscape:cx="14.600772"
     inkscape:cy="11.135615"
     inkscape:document-units="px"
     inkscape:current-layer="layer1"
     showgrid="true"
     showguides="false"
     inkscape:guide-bbox="true"
     inkscape:window-width="1680"
     inkscape:window-height="975"
     inkscape:window-x="-9"
     inkscape:window-y="-9"
     inkscape:window-maximized="1"
     fit-margin-top="0"
     fit-margin-left="0"
     fit-margin-right="0"
     fit-margin-bottom="0">
    <sodipodi:guide
       orientation="1,0"
       position="-2.3843641,19.269502"
       id="guide4470" />
    <sodipodi:guide
       orientation="0,1"
       position="1.6156359,23.269502"
       id="guide4472" />
    <sodipodi:guide
       orientation="1,0"
       position="21.615636,12.269502"
       id="guide4474" />
    <sodipodi:guide
       orientation="0,1"
       position="12.615636,-0.73049785"
       id="guide4476" />
    <sodipodi:guide
       orientation="1,0"
       position="20.615636,19.269502"
       id="guide4478" />
    <sodipodi:guide
       orientation="0,1"
       position="17.615636,22.269502"
       id="guide4480" />
    <sodipodi:guide
       orientation="1,0"
       position="-0.3843641,4.2695022"
       id="guide4482" />
    <sodipodi:guide
       orientation="0,1"
       position="4.6156359,1.2695022"
       id="guide4484" />
    <sodipodi:guide
       orientation="0,1"
       position="13.615636,12.269502"
       id="guide4490" />
  </sodipodi:namedview>
  <metadata
     id="metadata4465">
    <rdf:RDF>
      <cc:Work
         rdf:about="">
        <dc:format>image/svg+xml</dc:format>
        <dc:type
           rdf:resource="http://purl.org/dc/dcmitype/StillImage" />
        <dc:title></dc:title>
      </cc:Work>
    </rdf:RDF>
  </metadata>
  <g
     inkscape:label="Layer 1"
     inkscape:groupmode="layer"
     id="layer1"
     transform="translate(-2.3843641,-1023.9394)">
    <rect
       y="1028.3622"
       x="0"
       height="24.000017"
       width="24"
       id="rect22081"
       style="opacity:0.5;color:#000000;fill:none;stroke:none;stroke-width:2;marker:none;visibility:visible;display:inline;overflow:visible;enable-background:accumulate" />
    <path
       style="color:#000000;fill:#e5ff80;fill-opacity:1;fill-rule:nonzero;stroke:none;stroke-width:2;marker:none;visibility:visible;display:inline;overflow:visible;enable-background:accumulate"
       d="m 12.384362,1023.9394 c -4.967291,0 -9.9999979,4.6154 -9.9999979,10 0,5.3846 7.6923069,14.6154 9.9999979,17.6923 2.307692,-3.0769 10.000002,-12.3077 10.000002,-17.6923 0,-5.3846 -5.032711,-10 -10.000002,-10 z m -0.576923,2.2115 c 0.986325,0 1.778846,0.8405 1.778846,1.827 0,0.9863 -0.792521,1.7789 -1.778846,1.7789 -0.986324,0 -1.778845,-0.7926 -1.778845,-1.7789 0,-0.9865 0.792521,-1.827 1.778845,-1.827 z m -4.6634603,1.5866 c 0.3571796,0 0.7314423,0.2267 0.8653846,0.6731 l 0.6730769,2.2116 6.9230778,0 c 0.666658,0 0.821677,0.2915 0.913461,0.4807 l 1.442305,2.9326 c 0.124584,0.2571 0.09615,0.5174 0.09615,0.6251 0,0.7902 -1.044891,0.8548 -1.538459,0 0,0 -0.718091,-1.3863 -1.153846,-2.2597 l -1.298079,0 c 0.26401,1.2388 0.432692,3.4328 0.432692,4.4713 0,0.893 0.975075,2.7957 2.500002,4.6153 0.814305,0.972 0.01385,1.6347 -0.432695,1.6347 -0.637243,0 -1.126915,-0.8007 -1.586537,-1.3943 -1.245092,-1.608 -2.307692,-3.9424 -2.307692,-3.9424 l -2.211538,0 c -0.210469,0 -0.6559292,-0.015 -0.432692,0.4328 l 1.346153,2.6923 c 0.446475,0.8929 -0.885895,2.2185 -1.7788456,0.4326 l -1.3461535,-2.6923 c -0.8929492,-1.786 0.50128,-2.6441 1.3942304,-2.6441 l 0.8173077,0 c -0.165491,-1.3645 0.0975,-2.7129 -0.432692,-3.6059 l -1.4903846,0 c -0.6666662,0 -1.1709936,0.028 -1.3942307,-0.8654 l -0.4807692,-1.7787 c -0.065043,-0.3509 -0.1923077,-0.8997 -0.1923077,-1.3462 0,-0.4464 0.3158974,-0.6731 0.6730769,-0.6731 z"
       id="path7962-4-3-5-3"
       inkscape:connector-curvature="0" />
  </g>
</svg>
