<?xml version="1.0" encoding="utf-8"?>
<!-- Generator: Adobe Illustrator 16.0.3, SVG Export Plug-In . SVG Version: 6.00 Build 0)  -->
<!DOCTYPE svg PUBLIC "-//W3C//DTD SVG 1.1//EN" "http://www.w3.org/Graphics/SVG/1.1/DTD/svg11.dtd">
<svg version="1.1" xmlns="http://www.w3.org/2000/svg" xmlns:xlink="http://www.w3.org/1999/xlink" x="0px" y="0px" width="38px"
	 height="38px" viewBox="0 0 38 38" enable-background="new 0 0 38 38" xml:space="preserve">
<g id="pIN_BASE">
	<path fill="#3C6E55" d="M5.227,1.638c-1.984,0-3.592,1.608-3.592,3.589v27.549c0,1.977,1.608,3.587,3.592,3.587h27.546
		c1.981,0,3.593-1.61,3.593-3.587V5.227c0-1.981-1.612-3.589-3.593-3.589H5.227z"/>
	<path fill="#3C6E55" d="M32.773,37.096c2.389,0,4.328-1.928,4.328-4.32V5.227c0-2.388-1.938-4.323-4.328-4.323H5.224
		c-2.385,0-4.325,1.935-4.325,4.323v27.549c0,2.393,1.939,4.32,4.325,4.32H32.773z"/>
</g>
<g id="Winter" display="none">
	<g display="inline">
		<path fill="#FFFFFF" d="M17.326,34.232v-4.261l-2.378,1.338l-1.219-0.69V29.12l3.535-2.013v-2.803l-2.563,1.643v-2.965
			l-2.451,1.414v4.023l-1.339,0.829l-1.132-0.749v-2.697L6.06,27.898l-1.586-0.664v-1.702l3.899-2.137l-2.44-1.23V20.61l1.387-0.758
			l3.499,2.064l2.437-1.407l-0.062-0.034l-2.483-1.434l2.413-1.498l-2.423-1.396l-3.504,2.054l-1.313-0.657v-1.556l2.372-1.331
			l-3.78-2.053v-1.7l1.449-0.75l3.734,2.154V9.575l1.122-0.759L12.149,9.6l-0.009,4.115l2.508,1.424l-0.009-2.904l2.626,1.413V10.85
			l-3.535-2.017V7.343l1.219-0.7l2.378,1.34V3.73l1.366-0.898l1.371,0.898v4.253l2.471-1.366l1.244,0.819v1.343l-3.659,2.07v2.798
			l2.505-1.523v3.053l2.572-1.405V9.389l1.238-0.582l1.305,0.582v2.802l3.838-2.072l1.339,0.817v1.586l-3.747,2.135l2.34,1.314
			v1.507l-1.21,0.675l-3.596-2.125l-2.485,1.577l2.402,1.498l-2.472,1.428l2.555,1.34l3.596-2.011l1.153,0.817v1.455l-2.256,1.263
			l3.596,2.137v1.675l-1.525,0.69l-3.529-2.004v2.661l-1.266,0.701l-1.242-0.701v-4.041l-2.607-1.49v2.803l-2.505-1.524v2.803
			l3.535,2.013v1.581l-1.216,0.608l-2.375-1.338v4.261l-1.371,0.889L17.326,34.232z M16.348,19.069l1.273,1.886h2.384l1.093-1.886
			l-1.155-2.006h-2.379L16.348,19.069z"/>
	</g>
</g>
<g id="Water_Access">
	<g>
		<path fill="#FFFFFF" d="M13.473,6.83c-0.091-1.032,0.655-1.953,1.687-2.052c1.029-0.099,1.943,0.653,2.043,1.685
			c0.099,1.02-0.649,1.94-1.679,2.034C14.495,8.602,13.58,7.844,13.473,6.83z"/>
		<path fill="#FFFFFF" d="M19.245,14.267l-4.806-5.327c-0.066-0.076-0.192-0.192-0.279-0.25c-0.63-0.513-1.554-0.618-2.291-0.169
			l-4.443,2.716c-0.589,0.355-0.924,0.967-0.956,1.608c-0.012,0.128-0.006,0.25,0.021,0.379c0,0.006,0.012,0.018,0.012,0.023
			c0.012,0.082,0.023,0.163,0.062,0.233v0.012c0.043,0.157,0.104,0.327,0.195,0.472c0.023,0.029,0.046,0.046,0.069,0.082
			l1.075,2.279l-2.322,2.92c-0.402,0.501-0.317,1.229,0.195,1.643c0.501,0.402,1.232,0.315,1.638-0.198l2.771-3.479
			c0.037-0.046,0.052-0.099,0.087-0.151c0.044-0.076,0.085-0.146,0.105-0.222c0.023-0.076,0.028-0.151,0.04-0.221
			c0.006-0.076,0.018-0.158,0.012-0.228c-0.006-0.076-0.034-0.163-0.058-0.245v-0.006c0.632,0.472,1.229,0.915,1.521,1.13
			c-0.018,0.927-0.084,4.458-0.084,4.464c0,0.635,0.504,1.154,1.147,1.171c0.65,0.006,1.178-0.501,1.195-1.148l0.093-5.059
			c0.003-0.373-0.169-0.729-0.48-0.962l-2.748-2.04l3.386-2.086l3.485,3.881c0.335,0.379,0.912,0.414,1.291,0.07
			C19.554,15.216,19.58,14.639,19.245,14.267z"/>
		<path fill="#FFFFFF" d="M4.139,33.23c0.647,0,1.273-0.134,1.836-0.396c0.571-0.262,1.218-0.425,1.886-0.425
			c0.676,0,1.316,0.163,1.894,0.425c0.551,0.263,1.184,0.396,1.83,0.396c0.655,0,1.276-0.134,1.833-0.396
			c0.574-0.262,1.218-0.425,1.894-0.425c0.671,0,1.317,0.163,1.889,0.425c0.557,0.263,1.18,0.396,1.836,0.396
			c0.652,0,1.276-0.134,1.833-0.396c0.574-0.262,1.218-0.425,1.896-0.425c0.67,0,1.317,0.163,1.889,0.425
			c0.557,0.263,1.183,0.396,1.836,0.396c0.644,0,1.276-0.134,1.832-0.396c0.568-0.262,1.219-0.425,1.889-0.425
			c0.676,0,1.32,0.163,1.895,0.425c0.554,0.263,1.186,0.396,1.838,0.396v-2.751c-0.652,0-1.284-0.14-1.838-0.39
			c-0.574-0.268-1.219-0.42-1.895-0.42c-0.67,0-1.32,0.152-1.889,0.42c-0.556,0.25-1.188,0.39-1.832,0.39
			c-0.653,0-1.279-0.14-1.836-0.39c-0.571-0.268-1.219-0.42-1.889-0.42c-0.679,0-1.322,0.152-1.896,0.42
			c-0.557,0.25-1.181,0.39-1.833,0.39c-0.656,0-1.279-0.14-1.836-0.39c-0.571-0.268-1.218-0.42-1.889-0.42
			c-0.676,0-1.319,0.152-1.894,0.42c-0.557,0.25-1.178,0.39-1.833,0.39c-0.646,0-1.279-0.14-1.83-0.39
			c-0.577-0.268-1.218-0.42-1.894-0.42c-0.668,0-1.314,0.152-1.886,0.42c-0.563,0.25-1.188,0.39-1.836,0.39V33.23z"/>
		<path fill="#FFFFFF" d="M4.139,28.201c0.486,0,0.968-0.111,1.419-0.315c0.72-0.332,1.516-0.507,2.303-0.507
			c0.792,0,1.567,0.163,2.29,0.507c0.451,0.204,0.95,0.315,1.434,0.315c0.492,0,0.974-0.111,1.425-0.315
			c0.72-0.332,1.513-0.507,2.302-0.507c0.787,0,1.577,0.175,2.288,0.507c0.451,0.204,0.949,0.315,1.437,0.315
			c0.489,0,0.976-0.111,1.422-0.315c0.469-0.216,0.974-0.361,1.48-0.431l-2.509-1.813l-3.616-0.099l-2.541-1.754l-4.788-1.853
			l-4.461-0.589l0.029,6.854H4.139z"/>
		<path fill="#FFFFFF" d="M33.954,29.373l0.023-4.517l-9.809-4.266c0,0-2.302-1.11-2.581-1.25c-1.228-0.612-2.579-1.854-2.798-1.903
			c-0.414-0.096-0.096,3.464-0.096,3.464c-0.023,0.414,0.052,1.038,0.25,1.428c0.391,0.764,1.104,1.113,1.104,1.113L33.954,29.373z"
			/>
	</g>
</g>
<g id="Scenic" display="none">
	<path display="inline" fill="#FFFFFF" d="M27.593,11.007l-13.029,6.041l-1.047-1.821l11.728-8.292L27.593,11.007z M15.954,2.393
		l4.076,2.345l-7.182,9.822l-1.822-1.051L15.954,2.393z M5.596,19.001c0-1.917,1.559-3.472,3.476-3.472
		c1.916,0,3.465,1.555,3.465,3.472c0,1.914-1.549,3.468-3.465,3.468C7.154,22.47,5.596,20.916,5.596,19.001 M15.954,35.607
		l-4.928-11.121l1.822-1.047l7.182,9.822L15.954,35.607z M25.244,31.066l-11.728-8.295l1.047-1.816l13.029,6.042L25.244,31.066z
		 M32.404,21.351l-17.598-1.297v-2.104l17.598-1.296V21.351z"/>
</g>
<g id="Cycling" display="none">
	<g display="inline">
		<path fill="#FFFFFF" d="M8.873,32.31c3.06,0,5.543-2.479,5.543-5.543c0-3.061-2.483-5.545-5.543-5.545
			c-3.054,0-5.538,2.484-5.538,5.545C3.334,29.831,5.818,32.31,8.873,32.31L8.873,32.31z M2.073,26.766
			c0-3.756,3.05-6.797,6.8-6.797c3.758,0,6.809,3.041,6.809,6.797c0,3.763-3.051,6.797-6.809,6.797
			C5.123,33.563,2.073,30.529,2.073,26.766L2.073,26.766z"/>
		<path fill="#FFFFFF" d="M28.89,32.379c3.054,0,5.539-2.484,5.539-5.544c0-3.063-2.484-5.546-5.539-5.546
			c-3.06,0-5.543,2.483-5.543,5.546C23.347,29.895,25.83,32.379,28.89,32.379L28.89,32.379z M22.085,26.835
			c0-3.76,3.049-6.799,6.804-6.799c3.744,0,6.794,3.039,6.794,6.799c0,3.754-3.05,6.797-6.794,6.797
			C25.135,33.632,22.085,30.589,22.085,26.835L22.085,26.835z"/>
		<path fill="#FFFFFF" d="M22.209,16.443c-0.369,0.011-0.769-0.174-1.063-0.637l-1.661-2.602l-3.427,3.397l3.177,1.673
			c1.307,0.627,1.109,1.773,1.109,1.773v7.194c0,0.816-0.656,1.479-1.472,1.479c-0.815,0-1.472-0.663-1.472-1.479v-5.759
			l-5.51-3.061c-0.657-0.37-1.102-1.073-1.102-1.873c0-0.547,0.203-1.053,0.548-1.434l5.409-5.413
			c0.671-0.759,1.607-0.637,1.607-0.637c1.133,0,1.729,0.988,1.729,0.988l2.807,4.397l4.266-0.007c1.532,0,1.532,2,0,2H22.209z"/>
	</g>
	<g display="inline">
		<path fill="#FFFFFF" d="M24.778,5.451c-0.598-0.793-1.434-1.2-2.423-1.241c-1.63-0.067-2.988,0.545-4.105,1.718
			c-0.275,0.288-0.243,0.542,0.115,0.741c0.589,0.328,1.184,0.653,1.782,0.961c0.501,0.259,0.857,0.198,1.289-0.183
			c0.11-0.098,0.218-0.201,0.327-0.303c0.348-0.329,0.733-0.509,1.235-0.478c0.592,0.037,1.19,0.008,1.784,0.002
			c0.13-0.002,0.26-0.033,0.533-0.069C25.112,6.154,25.007,5.754,24.778,5.451z"/>
		<path fill="#FFFFFF" d="M20.886,9.925c0.878,0.497,2.174,0.355,2.849-0.309c0.784-0.773,1.074-1.757,0.695-2.46
			c-0.365,0-0.755,0.025-1.139-0.006c-0.549-0.046-0.972,0.113-1.38,0.508c-0.788,0.762-1.206,0.774-2.193,0.226
			c-0.016-0.009-0.044,0.002-0.065,0.004C19.51,8.52,20.089,9.474,20.886,9.925z"/>
	</g>
</g>
<g id="Mtn_Biking" display="none">
	<g display="inline">
		<path fill="#FFFFFF" d="M34.988,27.828c0.112-0.057,0.198-0.099,0.315-0.157c-0.024-0.209-0.047-0.415-0.067-0.608
			c-0.13-0.065-0.227-0.115-0.342-0.174c-0.025-0.163-0.048-0.323-0.07-0.474c0.107-0.086,0.189-0.151,0.285-0.227
			c-0.057-0.204-0.11-0.393-0.162-0.573c-0.148-0.026-0.265-0.045-0.379-0.065c-0.056-0.178-0.105-0.337-0.154-0.491
			c0.078-0.095,0.147-0.177,0.219-0.262c-0.104-0.189-0.201-0.363-0.297-0.535c-0.132,0-0.24,0-0.366,0
			c-0.083-0.143-0.165-0.285-0.25-0.429c0.053-0.104,0.096-0.191,0.153-0.308c-0.136-0.158-0.271-0.314-0.395-0.46
			c-0.15,0.032-0.255,0.056-0.367,0.078c-0.113-0.122-0.216-0.237-0.322-0.353c0.026-0.111,0.047-0.206,0.076-0.334
			c-0.161-0.129-0.32-0.257-0.465-0.373c-0.132,0.061-0.22,0.103-0.31,0.144c-0.16-0.099-0.31-0.19-0.449-0.275
			c0-0.134,0-0.232,0-0.367c-0.183-0.083-0.368-0.169-0.547-0.25c-0.117,0.089-0.203,0.154-0.293,0.223
			c-0.162-0.08-0.311-0.152-0.457-0.224c-0.034-0.115-0.065-0.222-0.102-0.344c-0.186-0.038-0.369-0.075-0.559-0.116
			c-0.079,0.095-0.151,0.174-0.23,0.268c-0.156-0.03-0.308-0.059-0.456-0.088c-0.053-0.104-0.097-0.192-0.153-0.308
			c-0.198-0.021-0.404-0.041-0.597-0.062c-0.086,0.138-0.15,0.238-0.213,0.341c-0.172,0-0.326,0-0.491,0
			c-0.055-0.085-0.106-0.167-0.152-0.242c-0.124-0.023-0.229-0.044-0.341-0.065c-0.162-0.652-0.348-1.283-0.473-1.927
			c-0.185-0.963-0.938-1.692-1.865-1.73c-0.437-0.018-0.875-0.009-1.31,0.005c-0.453,0.014-0.715,0.259-0.71,0.634
			c0.004,0.428,0.27,0.692,0.723,0.698c0.381,0.006,0.762-0.012,1.143-0.013c0.268,0,0.476,0.093,0.558,0.381
			c0.203,0.72,0.413,1.437,0.618,2.154c0.017,0.06-0.008,0.13-0.015,0.215c-0.12,0.055-0.237,0.11-0.364,0.171
			c0,0.113,0,0.223,0,0.339c-0.169,0.08-0.328,0.155-0.49,0.234c-0.103-0.062-0.193-0.113-0.301-0.177
			c-0.172,0.116-0.337,0.228-0.509,0.345c0.028,0.11,0.055,0.203,0.082,0.309c-0.142,0.116-0.276,0.229-0.409,0.341
			c-0.122-0.033-0.227-0.063-0.357-0.098c-0.146,0.134-0.291,0.265-0.421,0.384c0.063,0.158,0.101,0.25,0.146,0.365
			c-0.117,0.13-0.237,0.259-0.346,0.378c-0.136,0-0.244,0-0.359,0c-0.109,0.175-0.213,0.341-0.311,0.501
			c0.082,0.12,0.144,0.21,0.207,0.303c-0.087,0.155-0.168,0.302-0.241,0.435c-0.139,0.033-0.257,0.061-0.393,0.091
			c-0.06,0.179-0.118,0.353-0.177,0.526c0.103,0.088,0.185,0.158,0.271,0.232c-0.051,0.17-0.098,0.328-0.146,0.489
			c-0.114,0.034-0.217,0.065-0.333,0.1c-0.039,0.212-0.077,0.417-0.116,0.629c0.113,0.063,0.217,0.119,0.326,0.178
			c-0.019,0.168-0.034,0.32-0.051,0.463c-0.103,0.061-0.187,0.109-0.258,0.152c0,0.216,0,0.412,0,0.599
			c0.132,0.075,0.234,0.134,0.356,0.203c0.01,0.167,0.021,0.333,0.029,0.482c-0.102,0.091-0.183,0.162-0.266,0.237
			c0.065,0.191,0.126,0.368,0.188,0.551c0.11,0.031,0.215,0.063,0.318,0.091c0.07,0.162,0.137,0.313,0.228,0.52
			c-0.084,0.043-0.175,0.088-0.274,0.138c0.114,0.24,0.204,0.427,0.289,0.606c0.146,0,0.255,0,0.38,0
			c0.081,0.148,0.161,0.291,0.234,0.422c-0.047,0.115-0.083,0.207-0.13,0.319c0.123,0.155,0.246,0.309,0.365,0.462
			c0.132-0.032,0.235-0.059,0.362-0.09c0.119,0.121,0.235,0.241,0.352,0.359c-0.025,0.124-0.047,0.232-0.076,0.372
			c0.16,0.127,0.322,0.254,0.487,0.385c0.107-0.063,0.19-0.113,0.289-0.171c0.151,0.1,0.3,0.195,0.438,0.286
			c0.013,0.144,0.024,0.263,0.036,0.401c0.166,0.075,0.324,0.148,0.474,0.216c0.111-0.081,0.198-0.145,0.295-0.217
			c0.174,0.063,0.339,0.122,0.487,0.176c0.042,0.132,0.076,0.238,0.117,0.376c0.17,0.046,0.345,0.097,0.509,0.142
			c0.103-0.116,0.177-0.196,0.25-0.278c0.174,0.034,0.337,0.066,0.503,0.098c0.053,0.104,0.1,0.202,0.157,0.317
			c0.188,0,0.376,0,0.573,0c0.05-0.093,0.1-0.188,0.156-0.294c0.185-0.01,0.361-0.02,0.53-0.028
			c0.072,0.107,0.133,0.198,0.204,0.308c0.202-0.041,0.396-0.078,0.564-0.112c0.056-0.13,0.097-0.22,0.134-0.307
			c0.176-0.066,0.34-0.129,0.498-0.188c0.068,0.103,0.123,0.184,0.193,0.289c0.205-0.07,0.4-0.137,0.589-0.203
			c0.025-0.144,0.044-0.252,0.065-0.375c0.143-0.079,0.288-0.157,0.433-0.235c0.107,0.065,0.2,0.122,0.309,0.188
			c0.168-0.115,0.331-0.228,0.488-0.334c-0.01-0.141-0.015-0.25-0.023-0.372c0.132-0.107,0.261-0.21,0.391-0.315
			c0.114,0.047,0.213,0.087,0.338,0.139c0.148-0.154,0.291-0.306,0.43-0.449c-0.055-0.134-0.097-0.232-0.136-0.329
			c0.12-0.142,0.227-0.268,0.336-0.398c0.116,0.02,0.221,0.041,0.348,0.064c0.106-0.175,0.206-0.342,0.293-0.486
			c-0.063-0.146-0.109-0.246-0.151-0.344c0.067-0.152,0.132-0.295,0.191-0.43c0.133-0.017,0.243-0.029,0.385-0.048
			c0.066-0.194,0.135-0.389,0.204-0.59c-0.111-0.079-0.198-0.143-0.291-0.208c0.084-0.199,0.146-0.353,0.201-0.485
			c0.121-0.047,0.214-0.084,0.336-0.132c0.028-0.201,0.059-0.404,0.088-0.606c-0.113-0.063-0.198-0.108-0.304-0.167
			C34.956,28.187,34.974,28,34.988,27.828z M29.922,32.696c-2.794,0.958-5.717-0.599-6.626-3.204
			c-0.944-2.703,0.525-5.579,2.99-6.535c0.126,0.464,0.245,0.901,0.362,1.341c0.214,0.795,0.433,1.59,0.636,2.39
			c0.035,0.142,0.024,0.305-0.007,0.451c-0.116,0.563,0.098,1.035,0.574,1.215c0.506,0.19,1.004,0.028,1.209-0.515
			c0.1-0.263,0.085-0.727-0.083-0.897c-0.349-0.353-0.418-0.767-0.533-1.189c-0.274-1.001-0.555-1.999-0.831-2.999
			c-0.008-0.029,0.008-0.064,0.012-0.097c1.871-0.412,4.625,0.804,5.532,3.478C34.067,28.815,32.551,31.793,29.922,32.696z
			 M16.016,27.857c0.117-0.077,0.218-0.144,0.331-0.217c-0.013-0.192-0.026-0.377-0.037-0.554c-0.136-0.071-0.24-0.129-0.343-0.184
			c-0.033-0.163-0.065-0.313-0.099-0.465c0.099-0.076,0.185-0.14,0.298-0.228c-0.055-0.189-0.108-0.376-0.16-0.55
			c-0.145-0.044-0.249-0.075-0.371-0.109c-0.053-0.157-0.107-0.313-0.155-0.451c0.079-0.114,0.143-0.204,0.214-0.304
			c-0.088-0.174-0.173-0.339-0.254-0.498c-0.147-0.016-0.266-0.027-0.395-0.04c-0.086-0.137-0.169-0.267-0.255-0.402
			c0.044-0.11,0.086-0.21,0.136-0.336c-0.136-0.153-0.271-0.309-0.395-0.448c-0.146,0.027-0.241,0.045-0.35,0.066
			c-0.123-0.117-0.243-0.232-0.36-0.345c0.038-0.117,0.068-0.21,0.107-0.334c-0.161-0.132-0.321-0.26-0.475-0.383
			c-0.137,0.057-0.234,0.099-0.331,0.139c-0.156-0.096-0.298-0.183-0.45-0.276c0.01-0.112,0.016-0.216,0.025-0.339
			c-0.188-0.093-0.366-0.181-0.546-0.269c-0.092,0.074-0.165,0.137-0.253,0.211c-0.167-0.066-0.332-0.131-0.486-0.193
			c-0.031-0.128-0.056-0.232-0.083-0.345c-0.196-0.043-0.379-0.083-0.595-0.13c-0.062,0.086-0.127,0.177-0.197,0.275
			c-0.195-0.037-0.365-0.068-0.521-0.098c-0.057-0.129-0.1-0.229-0.144-0.327c-0.215,0-0.411,0-0.597,0
			c-0.056,0.111-0.099,0.2-0.146,0.299c-0.185,0-0.357,0-0.521,0c-0.084-0.098-0.155-0.181-0.231-0.271
			c-0.193,0.028-0.376,0.056-0.559,0.083c-0.039,0.123-0.072,0.228-0.108,0.349c-0.171,0.047-0.34,0.093-0.509,0.139
			c-0.075-0.101-0.135-0.179-0.204-0.271c-0.211,0.091-0.412,0.176-0.603,0.259c-0.009,0.133-0.016,0.23-0.024,0.347
			c-0.146,0.077-0.292,0.153-0.427,0.224c-0.124-0.065-0.22-0.115-0.337-0.178c-0.164,0.107-0.328,0.216-0.477,0.314
			c0.02,0.14,0.034,0.237,0.052,0.354c-0.146,0.116-0.291,0.234-0.429,0.347c-0.12-0.055-0.207-0.096-0.316-0.146
			c-0.137,0.154-0.269,0.302-0.387,0.436c0.028,0.146,0.05,0.253,0.077,0.384c-0.106,0.122-0.212,0.244-0.315,0.363
			c-0.124-0.018-0.219-0.031-0.344-0.049c-0.109,0.165-0.217,0.33-0.325,0.494c0.076,0.116,0.135,0.208,0.201,0.311
			c-0.084,0.159-0.165,0.314-0.25,0.478c-0.111,0-0.208,0-0.313,0c-0.085,0.193-0.163,0.374-0.241,0.554
			c0.093,0.099,0.167,0.178,0.249,0.266c-0.046,0.174-0.092,0.344-0.134,0.498c-0.134,0.042-0.236,0.076-0.348,0.111
			c-0.027,0.209-0.053,0.404-0.077,0.595c0.124,0.072,0.218,0.127,0.305,0.176c-0.012,0.174-0.021,0.326-0.03,0.479
			c-0.116,0.062-0.223,0.117-0.349,0.185c0.033,0.201,0.065,0.395,0.095,0.579c0.12,0.06,0.217,0.107,0.329,0.162
			c0.012,0.171,0.023,0.336,0.033,0.492c-0.088,0.097-0.16,0.179-0.246,0.277c0.047,0.179,0.096,0.357,0.143,0.537
			c0.127,0.013,0.223,0.021,0.331,0.03c0.07,0.171,0.139,0.331,0.206,0.496c-0.074,0.094-0.134,0.172-0.213,0.272
			c0.084,0.185,0.171,0.372,0.256,0.557c0.138-0.021,0.231-0.035,0.342-0.053c0.1,0.158,0.196,0.307,0.292,0.459
			c-0.045,0.11-0.086,0.21-0.133,0.327c0.13,0.167,0.258,0.331,0.39,0.499c0.105-0.051,0.192-0.093,0.249-0.12
			c0.162,0.139,0.304,0.26,0.44,0.378c-0.03,0.111-0.056,0.205-0.093,0.329c0.158,0.135,0.317,0.268,0.473,0.397
			C5.176,33.401,5.268,33.35,5.36,33.3c0.153,0.105,0.286,0.202,0.411,0.287c0.011,0.143,0.02,0.263,0.027,0.383
			c0.188,0.09,0.357,0.167,0.523,0.245c0.106-0.077,0.195-0.141,0.286-0.206c0.167,0.06,0.321,0.114,0.466,0.166
			c0.037,0.136,0.066,0.241,0.095,0.349c0.203,0.058,0.393,0.11,0.576,0.163c0.075-0.113,0.135-0.203,0.198-0.299
			c0.188,0.044,0.358,0.084,0.525,0.121c0.057,0.103,0.104,0.19,0.163,0.298c0.181,0.014,0.364,0.026,0.54,0.039
			c0.075-0.122,0.134-0.213,0.189-0.304c0.181-0.014,0.346-0.026,0.51-0.037c0.061,0.099,0.111,0.182,0.179,0.291
			c0.205-0.026,0.411-0.054,0.613-0.082c0.044-0.13,0.078-0.233,0.109-0.33c0.174-0.06,0.328-0.112,0.485-0.166
			c0.103,0.096,0.189,0.176,0.285,0.265c0.175-0.072,0.336-0.141,0.491-0.206c0.031-0.141,0.061-0.259,0.085-0.376
			c0.148-0.074,0.288-0.144,0.414-0.206c0.111,0.054,0.2,0.098,0.322,0.158c0.168-0.1,0.347-0.204,0.521-0.307
			c-0.012-0.144-0.021-0.251-0.031-0.376c0.136-0.102,0.265-0.201,0.382-0.289c0.126,0.029,0.223,0.052,0.346,0.08
			c0.155-0.131,0.311-0.267,0.437-0.376c-0.061-0.184-0.091-0.275-0.126-0.379c0.107-0.137,0.209-0.269,0.31-0.4
			c0.114,0.015,0.211,0.024,0.342,0.042c0.11-0.172,0.223-0.344,0.322-0.501c-0.071-0.137-0.123-0.231-0.175-0.328
			c0.096-0.153,0.184-0.294,0.265-0.422c0.118-0.02,0.216-0.034,0.337-0.054c0.059-0.174,0.118-0.352,0.176-0.523
			c-0.093-0.113-0.169-0.206-0.246-0.3c0.054-0.157,0.106-0.304,0.157-0.45c0.113-0.053,0.222-0.104,0.341-0.161
			c0.027-0.193,0.052-0.376,0.076-0.557c-0.114-0.073-0.204-0.131-0.272-0.178C16.016,28.18,16.016,28.017,16.016,27.857z
			 M14.311,29.059c-0.832,3.027-3.822,4.496-6.428,3.732c-3.343-0.978-4.543-4.385-3.397-7.059c1.228-2.865,4.455-3.797,6.807-2.711
			c-0.673,1.18-1.345,2.356-2.013,3.525c-0.743,0.363-0.872,0.948-0.677,1.371c0.207,0.441,0.661,0.678,1.162,0.555
			c0.483-0.117,0.699-0.511,0.649-1.197c0.666-1.166,1.334-2.334,2-3.498C13.513,24.198,14.964,26.688,14.311,29.059z
			 M18.528,14.145c0.595,0.59,1.199,1.173,1.781,1.776c0.278,0.289,0.6,0.406,0.989,0.402c0.973-0.006,1.946,0,2.92-0.003
			c0.718-0.003,1.185-0.419,1.18-1.048c-0.005-0.621-0.447-1.013-1.165-1.017c-0.762-0.007-1.522,0.014-2.284-0.01
			c-0.181-0.004-0.401-0.08-0.53-0.201c-0.977-0.936-1.957-1.87-2.894-2.846c-1.18-1.227-2.597-1.155-3.563,0.239
			c-0.547,0.79-1.069,1.597-1.6,2.399c-0.677,1.024-1.361,2.045-2.022,3.08c-0.526,0.821-0.122,2.292,0.756,2.75
			c1.673,0.873,3.298,1.839,4.959,2.738c0.298,0.161,0.388,0.339,0.386,0.653c-0.014,1.7-0.009,3.399-0.01,5.101
			c-0.002,0.757,0.574,1.34,1.329,1.343c0.7,0.001,1.276-0.591,1.278-1.328c0.003-2.249-0.02-4.498,0.011-6.745
			c0.011-0.766-0.342-1.249-0.957-1.593c-0.839-0.473-1.688-0.921-2.529-1.387c-0.297-0.165-0.581-0.354-0.911-0.555
			c0.886-1.332,1.745-2.628,2.621-3.948C18.393,14.039,18.468,14.084,18.528,14.145z M22.129,5.772
			c-0.584-0.774-1.4-1.172-2.366-1.212c-1.592-0.065-2.918,0.532-4.009,1.678c-0.269,0.281-0.237,0.529,0.112,0.724
			c0.575,0.32,1.155,0.638,1.74,0.938c0.489,0.253,0.837,0.193,1.258-0.179c0.107-0.096,0.213-0.196,0.319-0.296
			c0.34-0.321,0.716-0.497,1.206-0.467c0.578,0.036,1.162,0.008,1.742,0.002c0.127-0.002,0.254-0.032,0.521-0.067
			C22.455,6.459,22.353,6.069,22.129,5.772z M18.329,10.142c0.857,0.485,2.123,0.347,2.781-0.302
			c0.766-0.755,1.049-1.716,0.679-2.402c-0.356,0-0.737,0.024-1.112-0.006c-0.536-0.045-0.949,0.11-1.348,0.496
			c-0.77,0.744-1.177,0.756-2.142,0.221c-0.016-0.009-0.043,0.002-0.063,0.004C16.985,8.77,17.551,9.701,18.329,10.142z"/>
	</g>
</g>
<g id="Cross-Town" display="none">
	<polygon display="inline" fill="#FFFFFF" points="4.524,33.5 18.424,28.586 18.424,3.169 4.524,8.082 	"/>
	<polygon display="inline" fill="#FFFFFF" points="34.242,33.5 20.345,28.586 20.345,3.169 34.242,8.082 	"/>
	<polygon display="inline" fill="#3C6E55" points="25.254,21.045 27.692,21.906 28.545,23.818 29.535,22.547 31.802,23.341 
		29.976,25.465 31.936,29.191 29.535,28.353 28.545,26.135 27.379,27.595 25.156,26.811 27.1,24.464 	"/>
	<path display="inline" fill="#3C6E55" d="M5.822,21.902l-0.026-1.693c0.009,0,1.055-0.032,2.24-0.621l0.75,1.515
		C7.247,21.875,5.878,21.902,5.822,21.902 M10.085,20.289l-1.051-1.332c0.611-0.481,1.116-1.087,1.512-1.798l1.489,0.815
		C11.53,18.887,10.872,19.671,10.085,20.289 M29.976,18.954l-1.665-0.311c0.03-0.167,0.044-0.37,0.044-0.599
		c0-0.517-0.078-1.113-0.233-1.722l1.646-0.417c0.186,0.748,0.287,1.488,0.287,2.139C30.055,18.375,30.03,18.682,29.976,18.954
		 M12.635,16.613l-1.598-0.573c0.372-1.024,0.705-1.845,1.067-2.587l1.524,0.735C13.295,14.882,12.982,15.648,12.635,16.613
		 M27.736,15.135c-0.31-0.785-0.719-1.512-1.211-2.159l1.354-1.028c0.578,0.772,1.061,1.635,1.431,2.558L27.736,15.135z
		 M14.238,13.061l-1.457-0.87c0.557-0.923,1.168-1.703,1.836-2.307l1.141,1.247C15.219,11.626,14.708,12.279,14.238,13.061
		 M25.716,12.055c-0.591-0.573-1.259-1.048-1.988-1.417l0.753-1.512c0.894,0.437,1.704,1.019,2.415,1.718L25.716,12.055z
		 M16.706,10.427l-0.864-1.459c0.894-0.527,1.885-0.829,2.944-0.897l0.106,1.697C18.091,9.816,17.372,10.034,16.706,10.427
		 M22.595,10.182c-0.757-0.239-1.578-0.382-2.448-0.425l0.085-1.693c1.012,0.054,1.981,0.219,2.879,0.507L22.595,10.182z"/>
</g>
<g id="Paved" display="none">
	<g display="inline">
		<path fill="#FFFFFF" d="M20.177,8.806c1.207,0.093,2.262-0.809,2.355-2.008c0.098-1.207-0.803-2.262-2.009-2.355
			c-1.206-0.094-2.261,0.801-2.355,2.009C18.075,7.659,18.974,8.712,20.177,8.806z"/>
		<path fill="#FFFFFF" d="M12.946,30.856c0.58,0.044,1.083-0.252,1.389-0.72l3.023-5.104c0.065-0.136,0.276-0.468,0.297-0.627
			l0.737-3.367l3.15,3.454l0.99,5.196c0.158,0.612,0.665,1.119,1.334,1.167c0.818,0.064,1.533-0.54,1.6-1.358
			c0.005-0.101-0.013-0.18-0.01-0.304l-1.047-5.541c-0.033-0.165-0.095-0.327-0.183-0.468l-3.881-4.59l0.986-4.37l0.831,1.638
			c0.065,0.117,0.145,0.211,0.247,0.297l3.289,2.262c0.157,0.072,0.288,0.136,0.447,0.143c0.545,0.044,1.024-0.36,1.07-0.901
			c0.023-0.348-0.134-0.672-0.394-0.867l-3.007-2.075L21.6,10.344c-0.368-0.569-0.99-1.03-1.741-1.096
			c-0.573-0.045-1.106,0.158-1.534,0.454l-4.396,3.569c-0.145,0.124-0.254,0.283-0.305,0.477l-0.968,4.32
			c-0.005,0.044-0.014,0.087-0.022,0.13c-0.04,0.549,0.369,1.019,0.912,1.062c0.513,0.044,0.946-0.346,1.053-0.815l0.81-3.707
			l1.532-1.243L14.599,23.9l-2.817,4.723c-0.084,0.167-0.181,0.407-0.199,0.638C11.517,30.077,12.128,30.789,12.946,30.856z"/>
		<polygon fill="#FFFFFF" points="9.856,27.072 11.283,27.072 11.283,25.28 9.856,25.28 9.03,25.28 4.579,25.28 4.579,27.072 
			9.03,27.072 		"/>
		<polygon fill="#FFFFFF" points="32.713,25.28 31.455,25.28 26.574,25.28 26.574,27.072 31.455,27.072 32.713,27.072 
			33.708,27.072 33.708,25.28 		"/>
		<polygon fill="#FFFFFF" points="31.455,31.81 4.579,31.81 4.579,33.603 31.455,33.603 32.75,33.603 33.708,33.603 33.708,31.81 
			32.75,31.81 		"/>
	</g>
</g>
<g id="Improved_Access" display="none">
	<g display="inline">
		<path fill="#FFFFFF" d="M29.564,17.668c-0.361-0.371-0.863-0.567-1.38-0.537l-6.221,0.348l3.426-3.901
			c0.487-0.556,0.626-1.299,0.437-1.96c-0.098-0.452-0.374-0.865-0.796-1.128c-0.011-0.009-8.187-4.759-8.187-4.759
			c-0.667-0.385-1.508-0.302-2.083,0.211l-3.994,3.564c-0.736,0.654-0.799,1.782-0.143,2.518c0.656,0.735,1.786,0.802,2.521,0.146
			l3.024-2.701l2.504,1.453l-4.417,5.03c-1.833,0.3-3.481,1.143-4.774,2.362l2.307,2.307c1.043-0.951,2.427-1.529,3.944-1.529
			c3.235,0,5.869,2.635,5.869,5.87c0,1.517-0.578,2.901-1.528,3.944l2.309,2.307c1.536-1.634,2.479-3.832,2.479-6.251
			c0-1.441-0.335-2.805-0.93-4.017l2.41-0.135l-0.585,7.188c-0.082,0.984,0.652,1.844,1.632,1.925
			c0.05,0.003,0.098,0.005,0.148,0.005c0.919,0,1.701-0.706,1.779-1.64l0.749-9.23C30.105,18.543,29.924,18.037,29.564,17.668"/>
		<path fill="#FFFFFF" d="M26.259,10.022c1.647,0,2.985-1.339,2.985-2.988c0-1.651-1.338-2.988-2.985-2.988
			c-1.651,0-2.988,1.337-2.988,2.988C23.271,8.683,24.608,10.022,26.259,10.022"/>
		<path fill="#FFFFFF" d="M15.732,30.83c-3.235,0-5.869-2.635-5.869-5.869c0-1.221,0.376-2.355,1.013-3.292l-2.333-2.331
			c-1.213,1.549-1.939,3.5-1.939,5.623c0,5.041,4.087,9.128,9.128,9.128c2.123,0,4.074-0.726,5.625-1.94l-2.333-2.333
			C18.087,30.456,16.953,30.83,15.732,30.83"/>
	</g>
</g>
</svg>
