<?xml version="1.0" encoding="UTF-8" standalone="no"?>
<!-- Created with Inkscape (http://www.inkscape.org/) -->

<svg
   xmlns:dc="http://purl.org/dc/elements/1.1/"
   xmlns:cc="http://creativecommons.org/ns#"
   xmlns:rdf="http://www.w3.org/1999/02/22-rdf-syntax-ns#"
   xmlns:svg="http://www.w3.org/2000/svg"
   xmlns="http://www.w3.org/2000/svg"
   xmlns:xlink="http://www.w3.org/1999/xlink"
   xmlns:sodipodi="http://sodipodi.sourceforge.net/DTD/sodipodi-0.dtd"
   xmlns:inkscape="http://www.inkscape.org/namespaces/inkscape"
   width="227.20695"
   height="49.394531"
   id="svg2"
   version="1.1"
   inkscape:version="0.48.5 r10040"
   sodipodi:docname="subtitle.svg">
  <defs
     id="defs4">
    <linearGradient
       id="linearGradient3115">
      <stop
         style="stop-color:#ff3f00;stop-opacity:1;"
         offset="0"
         id="stop3117" />
      <stop
         id="stop3123"
         offset="0.29870129"
         style="stop-color:#ff00ff;stop-opacity:1;" />
      <stop
         style="stop-color:#00ffb1;stop-opacity:1;"
         offset="1"
         id="stop3119" />
    </linearGradient>
    <linearGradient
       inkscape:collect="always"
       xlink:href="#linearGradient3115"
       id="linearGradient3121"
       x1="262.37625"
       y1="809.7879"
       x2="718.81189"
       y2="809.7879"
       gradientUnits="userSpaceOnUse" />
    <linearGradient
       inkscape:collect="always"
       xlink:href="#linearGradient3115"
       id="linearGradient4022"
       gradientUnits="userSpaceOnUse"
       x1="262.37625"
       y1="809.7879"
       x2="718.81189"
       y2="809.7879" />
    <linearGradient
       inkscape:collect="always"
       xlink:href="#linearGradient3115"
       id="linearGradient4160"
       gradientUnits="userSpaceOnUse"
       x1="262.37625"
       y1="809.7879"
       x2="718.81189"
       y2="809.7879" />
    <linearGradient
       inkscape:collect="always"
       xlink:href="#linearGradient3115"
       id="linearGradient4208"
       gradientUnits="userSpaceOnUse"
       x1="262.37625"
       y1="809.7879"
       x2="718.81189"
       y2="809.7879" />
  </defs>
  <sodipodi:namedview
     id="base"
     pagecolor="#ffffff"
     bordercolor="#666666"
     borderopacity="1.0"
     inkscape:pageopacity="0.0"
     inkscape:pageshadow="2"
     inkscape:zoom="2.03"
     inkscape:cx="9.0123415"
     inkscape:cy="-11.18605"
     inkscape:document-units="px"
     inkscape:current-layer="text3091"
     showgrid="false"
     showguides="true"
     inkscape:guide-bbox="true"
     inkscape:window-width="1680"
     inkscape:window-height="975"
     inkscape:window-x="-9"
     inkscape:window-y="-9"
     inkscape:window-maximized="1"
     fit-margin-top="0"
     fit-margin-left="0"
     fit-margin-right="0"
     fit-margin-bottom="0" />
  <metadata
     id="metadata7">
    <rdf:RDF>
      <cc:Work
         rdf:about="">
        <dc:format>image/svg+xml</dc:format>
        <dc:type
           rdf:resource="http://purl.org/dc/dcmitype/StillImage" />
        <dc:title></dc:title>
      </cc:Work>
    </rdf:RDF>
  </metadata>
  <g
     inkscape:label="Layer 1"
     inkscape:groupmode="layer"
     id="layer1"
     transform="translate(-269.15449,-791.29416)">
    <g
       style="font-size:64px;font-style:normal;font-variant:normal;font-weight:normal;font-stretch:normal;line-height:125%;letter-spacing:0px;word-spacing:0px;opacity:0.8;fill:#000000;fill-opacity:1;stroke:none;font-family:Levenim MT;-inkscape-font-specification:Levenim MT"
       id="text3091"
       transform="translate(-60.909198,-9.8014801)">
      <g
         style="font-size:22px;line-height:125%;opacity:0.4;font-family:Tw Cen MT Condensed Extra Bold;-inkscape-font-specification:Tw Cen MT Condensed Extra Bold"
         id="text3052">
        <path
           d="m 342.01682,819.72845 -10.30079,0 c 0,-3.51559 0.14648,-6.26949 0.43946,-8.26171 0.29296,-1.99215 0.90234,-3.75582 1.82812,-5.29102 0.92578,-1.53511 2.34374,-2.76558 4.25391,-3.69141 1.91014,-0.92573 4.17772,-1.38862 6.80273,-1.38867 4.33592,5e-5 7.66404,1.13677 9.98438,3.41016 2.32028,2.27348 3.48044,5.55473 3.48047,9.84375 -3e-5,2.20316 -0.44535,4.5762 -1.33594,7.11914 -0.89066,2.54299 -2.22659,5.33791 -4.00781,8.38476 l -5.76563,9.84375 9.45703,0 0,9.5625 -26.78906,0 15.32813,-26.1914 c 1.87498,-3.1406 2.81247,-5.99997 2.8125,-8.57813 -3e-5,-1.28902 -0.28128,-2.34371 -0.84375,-3.16406 -0.56252,-0.82027 -1.26565,-1.23043 -2.10938,-1.23047 -1.33595,4e-5 -2.209,0.53324 -2.61914,1.59961 -0.41017,1.06644 -0.61525,3.16996 -0.61523,6.31055 z"
           style="font-size:72px;letter-spacing:-6.98000240000000010px;opacity:0.80000000000000004;fill:#b3b3b3"
           id="path3126" />
        <path
           d="m 377.5265,801.09564 c 5.08592,5e-5 8.94724,2.0977 11.58399,6.29297 2.63668,4.19535 3.95504,10.37113 3.95507,18.52734 -3e-5,7.94533 -1.34183,14.02736 -4.02539,18.2461 -2.68362,4.21875 -6.5215,6.32812 -11.51367,6.32812 -4.73439,0 -8.50196,-1.97461 -11.30273,-5.92382 -2.80079,-3.94921 -4.20118,-10.33007 -4.20118,-19.14258 0,-7.73435 1.34766,-13.72262 4.04297,-17.96485 2.69531,-4.24214 6.46874,-6.36323 11.32032,-6.36328 z m -5.27344,24.25781 c -1e-5,10.03127 1.73436,15.04689 5.20313,15.04688 1.87498,10e-6 3.22849,-1.10741 4.06055,-3.32227 0.832,-2.21483 1.24802,-5.73631 1.24804,-10.56445 -2e-5,-5.32028 -0.41604,-9.19333 -1.24804,-11.61914 -0.83206,-2.42574 -2.20901,-3.63863 -4.13086,-3.63867 -3.42189,4e-5 -5.13283,4.69925 -5.13282,14.09765 z"
           style="font-size:72px;letter-spacing:-6.98000240000000010px;opacity:0.80000000000000004;fill:#b3b3b3"
           id="path3128" />
        <path
           d="m 395.82384,802.32611 16.13672,0 0,46.93359 -10.16016,0 0,-37.08984 -5.97656,0 z"
           style="font-size:72px;letter-spacing:-6.98000240000000010px;opacity:0.80000000000000004;fill:#b3b3b3"
           id="path3130" />
        <path
           d="m 434.08994,802.32611 10.93359,0 0,29.07422 3.65625,0 0,8.50781 -3.65625,0 0,9.35156 -9.73828,0 0,-9.35156 -15.04688,0 0,-7.6289 z m 1.05468,14.16797 -6.82031,14.90625 6.96094,0 0,-14.90625 z"
           style="font-size:72px;letter-spacing:-6.98000240000000010px;opacity:0.80000000000000004;fill:#b3b3b3"
           id="path3132" />
      </g>
      <g
         style="font-size:22px;line-height:125%;fill:#00d455;font-family:Tw Cen MT Condensed Extra Bold;-inkscape-font-specification:Tw Cen MT Condensed Extra Bold"
         id="text3056">
        <path
           d="m 454.58853,801.09564 3.58594,0 0,10.42969 -2.25781,0 0,-8.24219 -1.32813,0 z"
           style="font-size:16px"
           id="path3115" />
        <path
           d="m 464.84634,804.33783 2.24219,0 0.57031,1.86719 c 0.19792,0.65625 0.36979,1.29948 0.51563,1.92968 l 0.0391,0 c 0.11979,-0.59895 0.21875,-1.02864 0.29688,-1.28906 l 0.75781,-2.50781 2.27344,0 -3.0625,10.14844 -2.26563,0 0.92188,-3.05469 z"
           style="font-size:16px"
           id="path3117" />
        <path
           d="m 475.93228,809.33002 1.91406,0 c -0.36459,1.61458 -1.27604,2.42187 -2.73437,2.42187 -0.91146,0 -1.63282,-0.34635 -2.16406,-1.03906 -0.53125,-0.69271 -0.79688,-1.64844 -0.79688,-2.86719 0,-1.13541 0.26563,-2.04557 0.79688,-2.73047 0.53124,-0.68489 1.23697,-1.02733 2.11718,-1.02734 0.53125,10e-6 1.04167,0.16537 1.53125,0.49609 0.48958,0.33074 0.84635,0.76954 1.07032,1.31641 0.22395,0.54688 0.34895,1.40886 0.375,2.58594 l -3.78907,0 c 0.0312,1.06771 0.32813,1.60156 0.89063,1.60156 0.1927,0 0.36458,-0.0703 0.51562,-0.21094 0.15104,-0.14062 0.24219,-0.32291 0.27344,-0.54687 z m -1.64844,-2.07813 1.64844,0 c -0.0156,-0.5052 -0.0859,-0.8789 -0.21094,-1.12109 -0.125,-0.24218 -0.32292,-0.36328 -0.59375,-0.36328 -0.30208,0 -0.51823,0.11719 -0.64843,0.35156 -0.13021,0.23438 -0.19532,0.61198 -0.19532,1.13281 z"
           style="font-size:16px"
           id="path3119" />
        <path
           d="m 482.94791,811.52533 0,-0.94531 -0.0312,0 c -0.27605,0.40625 -0.54298,0.70573 -0.80078,0.89843 -0.25782,0.19271 -0.56121,0.28907 -0.91016,0.28907 -0.68229,0 -1.22656,-0.34896 -1.63281,-1.04688 -0.40625,-0.69791 -0.60938,-1.64583 -0.60938,-2.84375 0,-1.15103 0.20573,-2.0677 0.61719,-2.75 0.41146,-0.68228 0.95312,-1.02343 1.625,-1.02344 0.35937,1e-5 0.66406,0.0899 0.91406,0.26954 0.25,0.17969 0.51041,0.46745 0.78125,0.86328 l 0.0312,0 0,-0.89844 2.27344,0 0,7.1875 z m 0,-3.63281 c -10e-6,-1.19271 -0.29167,-1.78906 -0.875,-1.78907 -0.58855,1e-5 -0.88282,0.59636 -0.88282,1.78907 0,1.23958 0.30469,1.85937 0.91407,1.85937 0.56249,0 0.84374,-0.61979 0.84375,-1.85937 z"
           style="font-size:16px"
           id="path3121" />
        <path
           d="m 489.10416,804.33783 0,1.20312 0.0312,0 c 0.54166,-0.93749 1.11197,-1.40624 1.71093,-1.40625 0.0885,1e-5 0.21094,0.0156 0.36719,0.0469 l 0,2.22656 c -0.27605,-0.0469 -0.53125,-0.0703 -0.76562,-0.0703 -0.83334,0 -1.25001,0.53907 -1.25,1.61719 l 0,3.57031 -2.26563,0 0,-7.1875 z"
           style="font-size:16px"
           id="path3123" />
      </g>
      <g
         style="font-size:22px;line-height:125%;fill:#ff6600;font-family:Tw Cen MT Condensed Extra Bold;-inkscape-font-specification:Tw Cen MT Condensed Extra Bold"
         id="text3060">
        <path
           d="m 454.12674,832.22845 9.19922,0 -5.90625,15.64454 -3.59766,0 4.62891,-12.4336 -4.32422,0 z"
           style="font-size:24px;fill:#ff6600"
           id="path3094" />
        <path
           d="m 464.12697,844.89447 2.76368,0 -2.5586,5.5957 -1.94336,0 z"
           style="font-size:20px"
           id="path3096" />
        <path
           d="m 471.27846,832.20502 6.64453,0 -0.0703,3.14062 -4.03125,0 -0.33985,2.37891 c 1.5,0.0469 2.64648,0.51368 3.43946,1.40039 0.79295,0.88673 1.18944,2.09961 1.18945,3.63867 -1e-5,1.6875 -0.46485,3.0293 -1.39453,4.02539 -0.9297,0.9961 -2.1836,1.49414 -3.76172,1.49414 -0.88282,0 -2.03516,-0.23437 -3.45703,-0.70312 l 0.45703,-3 c 1.13281,0.45312 1.98046,0.67969 2.54297,0.67968 0.70312,1e-5 1.24609,-0.23046 1.6289,-0.6914 0.38281,-0.46094 0.57422,-1.12109 0.57422,-1.98047 0,-0.73437 -0.25196,-1.30078 -0.75586,-1.69922 -0.50391,-0.39843 -1.22461,-0.59765 -2.16211,-0.59766 -0.42187,1e-5 -0.96875,0.0703 -1.64062,0.21094 z"
           style="font-size:24px;fill:#ff6600"
           id="path3098" />
        <path
           d="m 485.63393,831.8183 c 1.6953,10e-6 2.98241,0.69923 3.86132,2.09765 0.8789,1.39845 1.31835,3.45705 1.31836,6.17579 -10e-6,2.64844 -0.44727,4.67578 -1.34179,6.08203 -0.89454,1.40625 -2.17384,2.10937 -3.83789,2.10937 -1.57813,0 -2.83399,-0.6582 -3.76758,-1.97461 -0.9336,-1.3164 -1.40039,-3.44335 -1.40039,-6.38086 0,-2.57811 0.44922,-4.5742 1.34765,-5.98828 0.89844,-1.41405 2.15625,-2.12108 3.77344,-2.12109 z m -1.75782,8.08594 c 0,3.34375 0.57812,5.01562 1.73438,5.01562 0.62499,0 1.07616,-0.36914 1.35351,-1.10742 0.27734,-0.73828 0.41601,-1.9121 0.41602,-3.52149 -10e-6,-1.77342 -0.13868,-3.06444 -0.41602,-3.87304 -0.27735,-0.80858 -0.73633,-1.21288 -1.37695,-1.21289 -1.14063,10e-6 -1.71094,1.56641 -1.71094,4.69922 z"
           style="font-size:24px;fill:#ff6600"
           id="path3100" />
        <path
           d="m 497.39955,831.8183 c 1.69531,10e-6 2.98241,0.69923 3.86133,2.09765 0.8789,1.39845 1.31835,3.45705 1.31836,6.17579 -1e-5,2.64844 -0.44728,4.67578 -1.3418,6.08203 -0.89454,1.40625 -2.17383,2.10937 -3.83789,2.10937 -1.57813,0 -2.83399,-0.6582 -3.76758,-1.97461 -0.93359,-1.3164 -1.40039,-3.44335 -1.40039,-6.38086 0,-2.57811 0.44922,-4.5742 1.34766,-5.98828 0.89843,-1.41405 2.15624,-2.12108 3.77344,-2.12109 z m -1.75781,8.08594 c -1e-5,3.34375 0.57812,5.01562 1.73437,5.01562 0.625,0 1.07617,-0.36914 1.35352,-1.10742 0.27734,-0.73828 0.41601,-1.9121 0.41602,-3.52149 -10e-6,-1.77342 -0.13868,-3.06444 -0.41602,-3.87304 -0.27735,-0.80858 -0.73634,-1.21288 -1.37695,-1.21289 -1.14063,10e-6 -1.71095,1.56641 -1.71094,4.69922 z"
           style="font-size:24px;fill:#ff6600"
           id="path3102" />
        <path
           d="m 513.91127,837.09174 0,1.32421 c 0.96874,-1.1328 1.95312,-1.6992 2.95313,-1.69921 1.20311,1e-5 1.98045,0.6211 2.33203,1.86328 0.54686,-0.64843 1.05663,-1.12109 1.52929,-1.41797 0.47265,-0.29687 1.02538,-0.4453 1.65821,-0.44531 1.58592,1e-5 2.37889,1.10938 2.3789,3.32812 l 0,7.82813 -3.41015,0 0,-6.36329 c -2e-5,-1.03905 -0.33595,-1.55858 -1.00782,-1.55859 -0.68751,10e-6 -1.03126,0.51173 -1.03125,1.53516 l 0,6.38672 -3.41015,0 0,-6.55079 c -10e-6,-0.39843 -0.0918,-0.72655 -0.27539,-0.98437 -0.1836,-0.25781 -0.41993,-0.38671 -0.70899,-0.38672 -0.30469,10e-6 -0.54883,0.12501 -0.73242,0.375 -0.1836,0.25001 -0.27539,0.58985 -0.27539,1.01953 l 0,6.52735 -3.39844,0 0,-10.78125 z"
           style="font-size:24px;fill:#ff6600"
           id="path3104" />
        <path
           d="m 527.29408,833.85736 c 0,-0.49998 0.17578,-0.92577 0.52735,-1.27734 0.35156,-0.35155 0.77343,-0.52733 1.26562,-0.52735 0.5,2e-5 0.92578,0.1758 1.27735,0.52735 0.35155,0.35157 0.52733,0.77736 0.52734,1.27734 -10e-6,0.4922 -0.17579,0.91603 -0.52734,1.27149 -0.35157,0.35548 -0.77735,0.53321 -1.27735,0.5332 -0.48438,10e-6 -0.9043,-0.17772 -1.25976,-0.5332 -0.35547,-0.35546 -0.53321,-0.77929 -0.53321,-1.27149 z m 0.0937,3.23438 3.41016,0 0,10.78125 -3.41016,0 z"
           style="font-size:24px;fill:#ff6600"
           id="path3106" />
        <path
           d="m 533.57533,831.36127 3.41016,0 0,16.51172 -3.41016,0 z"
           style="font-size:24px;fill:#ff6600"
           id="path3108" />
        <path
           d="m 544.73158,844.58002 2.8711,0 c -0.54689,2.42187 -1.91407,3.63281 -4.10157,3.63281 -1.36719,0 -2.44922,-0.51953 -3.24609,-1.55859 -0.79688,-1.03906 -1.19531,-2.47266 -1.19531,-4.30079 0,-1.70311 0.39843,-3.06835 1.19531,-4.0957 0.79687,-1.02733 1.85547,-1.541 3.17578,-1.54101 0.79687,1e-5 1.56249,0.24805 2.29688,0.74414 0.73436,0.4961 1.26952,1.1543 1.60547,1.97461 0.33592,0.82032 0.52342,2.11328 0.5625,3.8789 l -5.6836,0 c 0.0469,1.60157 0.49218,2.40235 1.33594,2.40235 0.28906,0 0.54687,-0.10547 0.77344,-0.31641 0.22655,-0.21094 0.36327,-0.48437 0.41015,-0.82031 z m -2.47265,-3.11719 2.47265,0 c -0.0234,-0.75781 -0.12891,-1.31835 -0.3164,-1.68164 -0.18751,-0.36327 -0.48438,-0.54491 -0.89063,-0.54492 -0.45313,10e-6 -0.77735,0.17579 -0.97265,0.52734 -0.19532,0.35157 -0.29298,0.91798 -0.29297,1.69922 z"
           style="font-size:24px;fill:#ff6600"
           id="path3110" />
        <path
           d="m 550.28627,844.39252 c 1.16406,0.6875 2.0039,1.03125 2.51953,1.03125 0.28125,0 0.51562,-0.0723 0.70313,-0.2168 0.18749,-0.14453 0.28124,-0.31836 0.28125,-0.52148 -10e-6,-0.21875 -0.0781,-0.37891 -0.23438,-0.48047 -0.15625,-0.10156 -0.74219,-0.375 -1.75781,-0.82032 -0.8125,-0.35937 -1.39844,-0.78319 -1.75781,-1.27148 -0.35938,-0.48827 -0.53907,-1.0957 -0.53907,-1.82227 0,-1.03905 0.35742,-1.89452 1.07227,-2.5664 0.71484,-0.67187 1.62695,-1.0078 2.73633,-1.00781 1.07812,1e-5 2.39843,0.42969 3.96094,1.28906 l -1.3125,2.42578 c -1.01564,-0.62499 -1.84767,-0.93749 -2.4961,-0.9375 -0.5625,10e-6 -0.84375,0.22657 -0.84375,0.67969 0,0.21875 0.10351,0.40821 0.31055,0.56836 0.20702,0.16016 0.58398,0.33789 1.13086,0.5332 1.02343,0.35938 1.76757,0.78907 2.23242,1.28906 0.46484,0.50001 0.69726,1.13282 0.69727,1.89844 -1e-5,1.09375 -0.3672,1.99219 -1.10157,2.69531 -0.73438,0.70313 -1.67188,1.05469 -2.8125,1.05469 -1.23438,0 -2.55469,-0.43359 -3.96093,-1.30078 z"
           style="font-size:24px;fill:#ff6600"
           id="path3112" />
      </g>
      <g
         style="font-size:22px;line-height:125%;fill:#00aad4;font-family:Tw Cen MT Condensed Extra Bold;-inkscape-font-specification:Tw Cen MT Condensed Extra Bold"
         id="text3064">
        <path
           d="m 453.6033,816.45697 3.58594,0 0,10.42969 -2.25781,0 0,-8.24219 -1.32813,0 z"
           style="font-size:16px"
           id="path3075" />
        <path
           d="m 461.23611,816.45697 6.13282,0 -3.9375,10.42969 -2.39844,0 3.08594,-8.28906 -2.88282,0 z"
           style="font-size:16px"
           id="path3077" />
        <path
           d="m 474.58768,819.69916 0,1.20312 0.0312,0 c 0.54166,-0.93749 1.11197,-1.40624 1.71093,-1.40625 0.0885,10e-6 0.21094,0.0156 0.36719,0.0469 l 0,2.22656 c -0.27604,-0.0469 -0.53125,-0.0703 -0.76562,-0.0703 -0.83334,0 -1.25001,0.53906 -1.25,1.61719 l 0,3.57031 -2.26563,0 0,-7.1875 z"
           style="font-size:16px"
           id="path3079" />
        <path
           d="m 477.86111,819.69916 2.27344,0 0,4.625 c 0,0.23958 0.056,0.4388 0.16797,0.59765 0.11198,0.15886 0.26432,0.23829 0.45703,0.23829 0.4375,0 0.65625,-0.32032 0.65625,-0.96094 l 0,-4.5 2.27344,0 0,4.16406 c -10e-6,1.05729 -0.2474,1.86589 -0.74219,2.42578 -0.4948,0.5599 -1.20834,0.83984 -2.14062,0.83985 -1.04167,-1e-5 -1.79297,-0.28646 -2.25391,-0.85938 -0.46094,-0.57292 -0.69141,-1.28906 -0.69141,-2.14844 z"
           style="font-size:16px"
           id="path3081" />
        <path
           d="m 487.65018,819.69916 0,0.97656 0.0391,0 c 0.53125,-0.80728 1.17968,-1.21093 1.94531,-1.21094 0.5,10e-6 0.89713,0.16668 1.19141,0.5 0.29426,0.33334 0.4414,0.78386 0.4414,1.35157 l 0,5.57031 -2.27343,0 0,-4.42969 c -10e-6,-0.24479 -0.0573,-0.44531 -0.17188,-0.60156 -0.11459,-0.15625 -0.26302,-0.23437 -0.44531,-0.23438 -0.48438,10e-6 -0.72657,0.3047 -0.72656,0.91407 l 0,4.35156 -2.26563,0 0,-7.1875 z"
           style="font-size:16px"
           id="path3083" />
        <path
           d="m 495.21268,819.69916 0,0.97656 0.0391,0 c 0.53125,-0.80728 1.17968,-1.21093 1.94531,-1.21094 0.5,10e-6 0.89713,0.16668 1.19141,0.5 0.29426,0.33334 0.4414,0.78386 0.4414,1.35157 l 0,5.57031 -2.27343,0 0,-4.42969 c -10e-6,-0.24479 -0.0573,-0.44531 -0.17188,-0.60156 -0.11459,-0.15625 -0.26302,-0.23437 -0.44531,-0.23438 -0.48438,10e-6 -0.72657,0.3047 -0.72656,0.91407 l 0,4.35156 -2.26563,0 0,-7.1875 z"
           style="font-size:16px"
           id="path3085" />
        <path
           d="m 503.88455,824.69135 1.91406,0 c -0.36458,1.61458 -1.27604,2.42187 -2.73437,2.42187 -0.91146,0 -1.63281,-0.34635 -2.16406,-1.03906 -0.53125,-0.69271 -0.79688,-1.64844 -0.79688,-2.86719 0,-1.13541 0.26563,-2.04557 0.79688,-2.73047 0.53125,-0.68489 1.23697,-1.02733 2.11718,-1.02734 0.53125,10e-6 1.04167,0.16537 1.53125,0.49609 0.48958,0.33074 0.84635,0.76954 1.07032,1.31641 0.22395,0.54688 0.34895,1.40886 0.375,2.58594 l -3.78907,0 c 0.0312,1.06771 0.32813,1.60156 0.89063,1.60156 0.1927,0 0.36458,-0.0703 0.51562,-0.21094 0.15104,-0.14062 0.24219,-0.32291 0.27344,-0.54687 z m -1.64844,-2.07813 1.64844,0 c -0.0156,-0.5052 -0.0859,-0.8789 -0.21094,-1.12109 -0.125,-0.24219 -0.32292,-0.36328 -0.59375,-0.36328 -0.30208,0 -0.51823,0.11719 -0.64843,0.35156 -0.13021,0.23438 -0.19532,0.61198 -0.19532,1.13281 z"
           style="font-size:16px"
           id="path3087" />
        <path
           d="m 509.49393,819.69916 0,1.20312 0.0312,0 c 0.54166,-0.93749 1.11197,-1.40624 1.71093,-1.40625 0.0885,10e-6 0.21094,0.0156 0.36719,0.0469 l 0,2.22656 c -0.27604,-0.0469 -0.53125,-0.0703 -0.76562,-0.0703 -0.83334,0 -1.25001,0.53906 -1.25,1.61719 l 0,3.57031 -2.26563,0 0,-7.1875 z"
           style="font-size:16px"
           id="path3089" />
        <path
           d="m 513.08768,824.56635 c 0.77604,0.45833 1.33593,0.6875 1.67968,0.6875 0.1875,0 0.34375,-0.0482 0.46875,-0.14454 0.125,-0.0964 0.1875,-0.21223 0.1875,-0.34765 0,-0.14583 -0.0521,-0.2526 -0.15625,-0.32031 -0.10417,-0.0677 -0.49479,-0.25 -1.17187,-0.54688 -0.54167,-0.23958 -0.93229,-0.52213 -1.17188,-0.84766 -0.23958,-0.32551 -0.35937,-0.73046 -0.35937,-1.21484 0,-0.6927 0.23828,-1.26301 0.71484,-1.71094 0.47656,-0.44791 1.08464,-0.67186 1.82422,-0.67187 0.71875,10e-6 1.59896,0.28646 2.64063,0.85937 l -0.875,1.61719 c -0.67709,-0.41666 -1.23178,-0.62499 -1.66407,-0.625 -0.375,1e-5 -0.5625,0.15105 -0.5625,0.45313 0,0.14583 0.069,0.27214 0.20704,0.3789 0.13801,0.10678 0.38932,0.22527 0.7539,0.35547 0.68229,0.23959 1.17838,0.52605 1.48828,0.85938 0.30989,0.33333 0.46484,0.75521 0.46485,1.26562 -10e-6,0.72917 -0.2448,1.32813 -0.73438,1.79688 -0.48959,0.46875 -1.11459,0.70312 -1.875,0.70312 -0.82292,0 -1.70312,-0.28906 -2.64062,-0.86719 z"
           style="font-size:16px"
           id="path3091" />
      </g>
    </g>
  </g>
</svg>
