<?xml version="1.0" encoding="UTF-8" standalone="no"?>
<!-- Created with Inkscape (http://www.inkscape.org/) -->

<svg
   xmlns:dc="http://purl.org/dc/elements/1.1/"
   xmlns:cc="http://creativecommons.org/ns#"
   xmlns:rdf="http://www.w3.org/1999/02/22-rdf-syntax-ns#"
   xmlns:svg="http://www.w3.org/2000/svg"
   xmlns="http://www.w3.org/2000/svg"
   xmlns:xlink="http://www.w3.org/1999/xlink"
   xmlns:sodipodi="http://sodipodi.sourceforge.net/DTD/sodipodi-0.dtd"
   xmlns:inkscape="http://www.inkscape.org/namespaces/inkscape"
   width="324.56943"
   height="42.301876"
   id="svg2"
   version="1.1"
   inkscape:version="0.48.5 r10040"
   sodipodi:docname="title.svg">
  <defs
     id="defs4">
    <linearGradient
       id="linearGradient3115">
      <stop
         style="stop-color:#ff3f00;stop-opacity:1;"
         offset="0"
         id="stop3117" />
      <stop
         id="stop3123"
         offset="0.29870129"
         style="stop-color:#ff00ff;stop-opacity:1;" />
      <stop
         style="stop-color:#00ffb1;stop-opacity:1;"
         offset="1"
         id="stop3119" />
    </linearGradient>
    <linearGradient
       inkscape:collect="always"
       xlink:href="#linearGradient3115"
       id="linearGradient3121"
       x1="262.37625"
       y1="809.7879"
       x2="718.81189"
       y2="809.7879"
       gradientUnits="userSpaceOnUse" />
    <linearGradient
       inkscape:collect="always"
       xlink:href="#linearGradient3115"
       id="linearGradient4022"
       gradientUnits="userSpaceOnUse"
       x1="262.37625"
       y1="809.7879"
       x2="718.81189"
       y2="809.7879" />
    <linearGradient
       inkscape:collect="always"
       xlink:href="#linearGradient3115"
       id="linearGradient4098"
       gradientUnits="userSpaceOnUse"
       x1="262.37625"
       y1="809.7879"
       x2="718.81189"
       y2="809.7879" />
    <linearGradient
       inkscape:collect="always"
       xlink:href="#linearGradient3115"
       id="linearGradient4100"
       gradientUnits="userSpaceOnUse"
       x1="262.37625"
       y1="809.7879"
       x2="718.81189"
       y2="809.7879" />
    <linearGradient
       inkscape:collect="always"
       xlink:href="#linearGradient3115"
       id="linearGradient4102"
       gradientUnits="userSpaceOnUse"
       x1="262.37625"
       y1="809.7879"
       x2="718.81189"
       y2="809.7879" />
    <linearGradient
       inkscape:collect="always"
       xlink:href="#linearGradient3115"
       id="linearGradient4104"
       gradientUnits="userSpaceOnUse"
       x1="262.37625"
       y1="809.7879"
       x2="718.81189"
       y2="809.7879" />
    <linearGradient
       inkscape:collect="always"
       xlink:href="#linearGradient3115"
       id="linearGradient4106"
       gradientUnits="userSpaceOnUse"
       x1="262.37625"
       y1="809.7879"
       x2="718.81189"
       y2="809.7879" />
    <linearGradient
       inkscape:collect="always"
       xlink:href="#linearGradient3115"
       id="linearGradient4108"
       gradientUnits="userSpaceOnUse"
       x1="262.37625"
       y1="809.7879"
       x2="718.81189"
       y2="809.7879" />
    <linearGradient
       inkscape:collect="always"
       xlink:href="#linearGradient3115"
       id="linearGradient4110"
       gradientUnits="userSpaceOnUse"
       x1="262.37625"
       y1="809.7879"
       x2="718.81189"
       y2="809.7879" />
    <linearGradient
       inkscape:collect="always"
       xlink:href="#linearGradient3115"
       id="linearGradient4112"
       gradientUnits="userSpaceOnUse"
       x1="262.37625"
       y1="809.7879"
       x2="718.81189"
       y2="809.7879" />
    <linearGradient
       inkscape:collect="always"
       xlink:href="#linearGradient3115"
       id="linearGradient4114"
       gradientUnits="userSpaceOnUse"
       x1="262.37625"
       y1="809.7879"
       x2="718.81189"
       y2="809.7879" />
    <linearGradient
       inkscape:collect="always"
       xlink:href="#linearGradient3115"
       id="linearGradient4116"
       gradientUnits="userSpaceOnUse"
       x1="262.37625"
       y1="809.7879"
       x2="718.81189"
       y2="809.7879" />
    <linearGradient
       inkscape:collect="always"
       xlink:href="#linearGradient3115"
       id="linearGradient4118"
       gradientUnits="userSpaceOnUse"
       x1="262.37625"
       y1="809.7879"
       x2="718.81189"
       y2="809.7879" />
    <linearGradient
       inkscape:collect="always"
       xlink:href="#linearGradient3115"
       id="linearGradient4120"
       gradientUnits="userSpaceOnUse"
       x1="262.37625"
       y1="809.7879"
       x2="718.81189"
       y2="809.7879" />
    <linearGradient
       inkscape:collect="always"
       xlink:href="#linearGradient3115"
       id="linearGradient4122"
       gradientUnits="userSpaceOnUse"
       x1="262.37625"
       y1="809.7879"
       x2="718.81189"
       y2="809.7879" />
    <linearGradient
       inkscape:collect="always"
       xlink:href="#linearGradient3115"
       id="linearGradient4124"
       gradientUnits="userSpaceOnUse"
       x1="262.37625"
       y1="809.7879"
       x2="718.81189"
       y2="809.7879" />
    <linearGradient
       inkscape:collect="always"
       xlink:href="#linearGradient3115"
       id="linearGradient4126"
       gradientUnits="userSpaceOnUse"
       x1="262.37625"
       y1="809.7879"
       x2="718.81189"
       y2="809.7879" />
    <linearGradient
       inkscape:collect="always"
       xlink:href="#linearGradient3115"
       id="linearGradient4128"
       gradientUnits="userSpaceOnUse"
       x1="262.37625"
       y1="809.7879"
       x2="718.81189"
       y2="809.7879" />
    <linearGradient
       inkscape:collect="always"
       xlink:href="#linearGradient3115"
       id="linearGradient4130"
       gradientUnits="userSpaceOnUse"
       x1="262.37625"
       y1="809.7879"
       x2="718.81189"
       y2="809.7879" />
    <linearGradient
       inkscape:collect="always"
       xlink:href="#linearGradient3115"
       id="linearGradient4132"
       gradientUnits="userSpaceOnUse"
       x1="262.37625"
       y1="809.7879"
       x2="718.81189"
       y2="809.7879" />
    <linearGradient
       inkscape:collect="always"
       xlink:href="#linearGradient3115"
       id="linearGradient4134"
       gradientUnits="userSpaceOnUse"
       x1="262.37625"
       y1="809.7879"
       x2="718.81189"
       y2="809.7879" />
    <linearGradient
       inkscape:collect="always"
       xlink:href="#linearGradient3115"
       id="linearGradient4136"
       gradientUnits="userSpaceOnUse"
       x1="262.37625"
       y1="809.7879"
       x2="718.81189"
       y2="809.7879" />
    <linearGradient
       inkscape:collect="always"
       xlink:href="#linearGradient3115"
       id="linearGradient4138"
       gradientUnits="userSpaceOnUse"
       x1="262.37625"
       y1="809.7879"
       x2="718.81189"
       y2="809.7879" />
    <linearGradient
       inkscape:collect="always"
       xlink:href="#linearGradient3115"
       id="linearGradient4140"
       gradientUnits="userSpaceOnUse"
       x1="262.37625"
       y1="809.7879"
       x2="718.81189"
       y2="809.7879" />
    <linearGradient
       inkscape:collect="always"
       xlink:href="#linearGradient3115"
       id="linearGradient4160"
       gradientUnits="userSpaceOnUse"
       x1="262.37625"
       y1="809.7879"
       x2="718.81189"
       y2="809.7879" />
    <linearGradient
       inkscape:collect="always"
       xlink:href="#linearGradient3115"
       id="linearGradient4208"
       gradientUnits="userSpaceOnUse"
       x1="262.37625"
       y1="809.7879"
       x2="718.81189"
       y2="809.7879" />
  </defs>
  <sodipodi:namedview
     id="base"
     pagecolor="#ffffff"
     bordercolor="#666666"
     borderopacity="1.0"
     inkscape:pageopacity="0.0"
     inkscape:pageshadow="2"
     inkscape:zoom="1.4283557"
     inkscape:cx="77.79279"
     inkscape:cy="-9.2641465"
     inkscape:document-units="px"
     inkscape:current-layer="layer1"
     showgrid="false"
     showguides="true"
     inkscape:guide-bbox="true"
     inkscape:window-width="1680"
     inkscape:window-height="975"
     inkscape:window-x="-9"
     inkscape:window-y="-9"
     inkscape:window-maximized="1"
     fit-margin-top="0"
     fit-margin-left="0"
     fit-margin-right="0"
     fit-margin-bottom="0" />
  <metadata
     id="metadata7">
    <rdf:RDF>
      <cc:Work
         rdf:about="">
        <dc:format>image/svg+xml</dc:format>
        <dc:type
           rdf:resource="http://purl.org/dc/dcmitype/StillImage" />
        <dc:title />
      </cc:Work>
    </rdf:RDF>
  </metadata>
  <g
     inkscape:label="Layer 1"
     inkscape:groupmode="layer"
     id="layer1"
     transform="translate(-264.41345,-800.30872)">
    <g
       style="font-size:64px;font-style:normal;font-variant:normal;font-weight:normal;font-stretch:normal;line-height:125%;letter-spacing:0px;word-spacing:0px;opacity:0.8;fill:url(#linearGradient4208);fill-opacity:1;stroke:none;font-family:Levenim MT;-inkscape-font-specification:Levenim MT"
       id="text2985">
      <path
         inkscape:connector-curvature="0"
         d="m 278.74158,819.06653 -4.30664,0 -0.69727,-3.04883 -4.375,0 -0.72461,3.04883 -4.22461,0 4.83985,-18.25195 4.64843,0 z m -5.79688,-6.33008 c -0.6198,-2.71614 -1.08464,-5.30012 -1.39453,-7.75195 l -0.0547,0 c -0.32813,2.52475 -0.78841,5.10873 -1.38086,7.75195 z"
         style="font-size:28px;fill:url(#linearGradient4098);fill-opacity:1;font-family:Tw Cen MT Condensed Extra Bold;-inkscape-font-specification:Tw Cen MT Condensed Extra Bold"
         id="path3053" />
      <path
         inkscape:connector-curvature="0"
         d="m 280.84705,800.81458 4.82617,0 c 1.95051,10e-6 3.49087,0.50132 4.62109,1.5039 1.1302,1.00262 1.6953,2.36525 1.69531,4.08789 -10e-6,0.88413 -0.2142,1.73862 -0.64257,2.56348 -0.4284,0.82488 -1.05275,1.44695 -1.87305,1.86621 l 3.30859,8.23047 -4.375,0 -3.34961,-8.3125 -0.0684,0 0,8.3125 -4.14257,0 z m 4.14257,3.52734 0,4.33398 c 1.83203,-0.0364 2.74804,-0.67902 2.74805,-1.92773 -10e-6,-0.84764 -0.21192,-1.45376 -0.63574,-1.81836 -0.42384,-0.36457 -1.12794,-0.56053 -2.11231,-0.58789 z"
         style="font-size:28px;fill:url(#linearGradient4100);fill-opacity:1;font-family:Tw Cen MT Condensed Extra Bold;-inkscape-font-specification:Tw Cen MT Condensed Extra Bold"
         id="path3055" />
      <path
         inkscape:connector-curvature="0"
         d="m 295.12048,800.81458 4.82618,0 c 1.95051,10e-6 3.49087,0.50132 4.62109,1.5039 1.13019,1.00262 1.6953,2.36525 1.69531,4.08789 -10e-6,0.88413 -0.2142,1.73862 -0.64258,2.56348 -0.42839,0.82488 -1.05274,1.44695 -1.87304,1.86621 l 3.30859,8.23047 -4.375,0 -3.34961,-8.3125 -0.0684,0 0,8.3125 -4.14258,0 z m 4.14258,3.52734 0,4.33398 c 1.83202,-0.0364 2.74804,-0.67902 2.74805,-1.92773 -10e-6,-0.84764 -0.21192,-1.45376 -0.63574,-1.81836 -0.42384,-0.36457 -1.12794,-0.56053 -2.11231,-0.58789 z"
         style="font-size:28px;fill:url(#linearGradient4102);fill-opacity:1;font-family:Tw Cen MT Condensed Extra Bold;-inkscape-font-specification:Tw Cen MT Condensed Extra Bold"
         id="path3057" />
      <path
         inkscape:connector-curvature="0"
         d="m 309.54431,800.81458 4.14258,0 0,18.25195 -4.14258,0 z"
         style="font-size:28px;fill:url(#linearGradient4104);fill-opacity:1;font-family:Tw Cen MT Condensed Extra Bold;-inkscape-font-specification:Tw Cen MT Condensed Extra Bold"
         id="path3059" />
      <path
         inkscape:connector-curvature="0"
         d="m 317.76111,800.81458 4.18359,0 5.26367,10.52734 -0.15039,-1.96875 0,-8.55859 4.14258,0 0,18.25195 -4.25195,0 -5.1543,-10.36328 0.10938,2.26953 0,8.09375 -4.14258,0 z"
         style="font-size:28px;fill:url(#linearGradient4106);fill-opacity:1;font-family:Tw Cen MT Condensed Extra Bold;-inkscape-font-specification:Tw Cen MT Condensed Extra Bold"
         id="path3061" />
      <path
         inkscape:connector-curvature="0"
         d="m 347.70251,808.83997 0,3.0625 c -1e-5,2.36979 -0.57195,4.23144 -1.71582,5.58496 -1.14389,1.35351 -2.70932,2.03027 -4.69628,2.03027 -2.22397,0 -3.94207,-0.83626 -5.1543,-2.50879 -1.21224,-1.67252 -1.81836,-4.05826 -1.81836,-7.15723 0,-3.12629 0.60384,-5.49835 1.81152,-7.11621 1.20768,-1.61782 2.97363,-2.42674 5.29785,-2.42675 2.60676,10e-6 4.49348,1.38999 5.66016,4.16992 l -3.95117,1.62695 c -0.32814,-0.58332 -0.63347,-1.00943 -0.91602,-1.27832 -0.28256,-0.26887 -0.66993,-0.40331 -1.16211,-0.40332 -0.83855,10e-6 -1.43327,0.43979 -1.78418,1.31934 -0.35091,0.87957 -0.52637,2.30372 -0.52636,4.27246 -10e-6,1.83204 0.19823,3.17871 0.59472,4.04004 0.39648,0.86133 1.02767,1.29199 1.89356,1.29199 1.38541,0 2.1009,-0.98893 2.14648,-2.9668 l -1.92773,0 0,-3.54101 z"
         style="font-size:28px;fill:url(#linearGradient4108);fill-opacity:1;font-family:Tw Cen MT Condensed Extra Bold;-inkscape-font-specification:Tw Cen MT Condensed Extra Bold"
         id="path3063" />
      <path
         inkscape:connector-curvature="0"
         d="m 349.37048,800.81458 9.88477,0 0,4.16992 -2.85742,0 0,14.08203 -4.19727,0 0,-14.08203 -2.83008,0 z"
         style="font-size:28px;fill:url(#linearGradient4110);fill-opacity:1;font-family:Tw Cen MT Condensed Extra Bold;-inkscape-font-specification:Tw Cen MT Condensed Extra Bold"
         id="path3065" />
      <path
         inkscape:connector-curvature="0"
         d="m 367.7865,819.5177 c -2.20574,0 -3.88737,-0.84538 -5.04492,-2.53613 -1.15756,-1.69075 -1.73633,-4.13118 -1.73633,-7.32129 0,-2.944 0.58105,-5.23859 1.74316,-6.88379 1.16211,-1.64517 2.78222,-2.46776 4.86035,-2.46777 2.21484,10e-6 3.90787,0.82488 5.07911,2.47461 1.17121,1.64975 1.75682,4.00587 1.75683,7.06835 -1e-5,3.06251 -0.57651,5.43914 -1.72949,7.12989 -1.15301,1.69075 -2.79591,2.53613 -4.92871,2.53613 z m -0.15039,-15.06641 c -1.4948,2e-5 -2.24219,1.75457 -2.24219,5.26368 0,2.26042 0.18912,3.76888 0.56738,4.52539 0.37825,0.75651 0.92741,1.13477 1.64746,1.13476 0.77474,10e-6 1.36946,-0.37825 1.78418,-1.13476 0.41471,-0.75651 0.62206,-2.23763 0.62207,-4.44336 -1e-5,-3.56379 -0.79297,-5.34569 -2.3789,-5.34571 z"
         style="font-size:28px;fill:url(#linearGradient4112);fill-opacity:1;font-family:Tw Cen MT Condensed Extra Bold;-inkscape-font-specification:Tw Cen MT Condensed Extra Bold"
         id="path3067" />
      <path
         inkscape:connector-curvature="0"
         d="m 377.53455,800.81458 4.18359,0 5.26367,10.52734 -0.15039,-1.96875 0,-8.55859 4.14258,0 0,18.25195 -4.25195,0 -5.1543,-10.36328 0.10937,2.26953 0,8.09375 -4.14257,0 z"
         style="font-size:28px;fill:url(#linearGradient4114);fill-opacity:1;font-family:Tw Cen MT Condensed Extra Bold;-inkscape-font-specification:Tw Cen MT Condensed Extra Bold"
         id="path3069" />
      <path
         inkscape:connector-curvature="0"
         d="m 401.8158,800.81458 8.38086,0 0,3.91015 -4.23829,0 0,3.33594 3.73243,0 0,3.78711 -3.73243,0 0,7.21875 -4.14257,0 z"
         style="font-size:28px;fill:url(#linearGradient4116);fill-opacity:1;font-family:Tw Cen MT Condensed Extra Bold;-inkscape-font-specification:Tw Cen MT Condensed Extra Bold"
         id="path3071" />
      <path
         inkscape:connector-curvature="0"
         d="m 425.68689,819.06653 -4.30664,0 -0.69727,-3.04883 -4.375,0 -0.72461,3.04883 -4.22461,0 4.83985,-18.25195 4.64844,0 z m -5.79688,-6.33008 c -0.6198,-2.71614 -1.08464,-5.30012 -1.39453,-7.75195 l -0.0547,0 c -0.32814,2.52475 -0.78842,5.10873 -1.38086,7.75195 z"
         style="font-size:28px;fill:url(#linearGradient4118);fill-opacity:1;font-family:Tw Cen MT Condensed Extra Bold;-inkscape-font-specification:Tw Cen MT Condensed Extra Bold"
         id="path3073" />
      <path
         inkscape:connector-curvature="0"
         d="m 429.11853,800.81458 5.23633,0 c 0.74738,3.93751 1.33528,7.32357 1.76367,10.1582 l 0.45117,-2.83008 c 0.18228,-1.10285 0.37825,-2.17837 0.58789,-3.22656 l 0.80664,-4.10156 5.34571,0 2.07812,18.25195 -4.10156,0 -1.10742,-12.55078 -2.55664,12.55078 -2.80274,0 -2.67969,-12.57813 -1.0664,12.57813 -3.92383,0 z"
         style="font-size:28px;fill:url(#linearGradient4120);fill-opacity:1;font-family:Tw Cen MT Condensed Extra Bold;-inkscape-font-specification:Tw Cen MT Condensed Extra Bold"
         id="path3075" />
      <path
         inkscape:connector-curvature="0"
         d="m 448.83337,800.81458 4.14258,0 0,18.25195 -4.14258,0 z"
         style="font-size:28px;fill:url(#linearGradient4122);fill-opacity:1;font-family:Tw Cen MT Condensed Extra Bold;-inkscape-font-specification:Tw Cen MT Condensed Extra Bold"
         id="path3077" />
      <path
         inkscape:connector-curvature="0"
         d="m 457.05017,800.81458 4.14258,0 0,14.02734 3.28125,0 0,4.22461 -7.42383,0 z"
         style="font-size:28px;fill:url(#linearGradient4124);fill-opacity:1;font-family:Tw Cen MT Condensed Extra Bold;-inkscape-font-specification:Tw Cen MT Condensed Extra Bold"
         id="path3079" />
      <path
         inkscape:connector-curvature="0"
         d="m 465.54041,800.81458 4.64843,0 c 1.02994,2.62501 1.77734,4.64845 2.24219,6.07031 l 0.0547,0 c 0.46483,-1.45832 1.20311,-3.48176 2.21484,-6.07031 l 4.75781,0 -4.89453,9.99414 0,8.25781 -4.19726,0 0,-8.25781 z"
         style="font-size:28px;fill:url(#linearGradient4126);fill-opacity:1;font-family:Tw Cen MT Condensed Extra Bold;-inkscape-font-specification:Tw Cen MT Condensed Extra Bold"
         id="path3081" />
      <path
         inkscape:connector-curvature="0"
         d="m 488.49548,800.81458 4.82618,0 c 1.95051,10e-6 3.49087,0.50132 4.62109,1.5039 1.13019,1.00262 1.6953,2.36525 1.69531,4.08789 -10e-6,0.88413 -0.2142,1.73862 -0.64258,2.56348 -0.42839,0.82488 -1.05274,1.44695 -1.87304,1.86621 l 3.30859,8.23047 -4.375,0 -3.34961,-8.3125 -0.0684,0 0,8.3125 -4.14258,0 z m 4.14258,3.52734 0,4.33398 c 1.83202,-0.0364 2.74804,-0.67902 2.74805,-1.92773 -10e-6,-0.84764 -0.21192,-1.45376 -0.63574,-1.81836 -0.42384,-0.36457 -1.12794,-0.56053 -2.11231,-0.58789 z"
         style="font-size:28px;fill:url(#linearGradient4128);fill-opacity:1;font-family:Tw Cen MT Condensed Extra Bold;-inkscape-font-specification:Tw Cen MT Condensed Extra Bold"
         id="path3083" />
      <path
         inkscape:connector-curvature="0"
         d="m 502.65955,800.81458 4.25195,0 0,12.85156 c -10e-6,0.60156 0.1595,1.0778 0.47851,1.42871 0.31901,0.35091 0.74739,0.52637 1.28516,0.52637 0.55598,0 0.99576,-0.18685 1.31934,-0.56055 0.32356,-0.37369 0.48534,-0.88867 0.48535,-1.54492 l 0,-12.70117 4.22461,0 0,11.97656 c -2e-5,1.63151 -0.21421,2.93945 -0.64258,3.92383 -0.4284,0.98437 -1.05958,1.7067 -1.89356,2.16699 -0.83399,0.46028 -1.99838,0.69043 -3.49316,0.69043 -2.20573,0 -3.75977,-0.56511 -4.66211,-1.69531 -0.90234,-1.13021 -1.35352,-3.03971 -1.35351,-5.72852 z"
         style="font-size:28px;fill:url(#linearGradient4130);fill-opacity:1;font-family:Tw Cen MT Condensed Extra Bold;-inkscape-font-specification:Tw Cen MT Condensed Extra Bold"
         id="path3085" />
      <path
         inkscape:connector-curvature="0"
         d="m 518.46423,800.81458 4.1836,0 5.26367,10.52734 -0.15039,-1.96875 0,-8.55859 4.14258,0 0,18.25195 -4.25196,0 -5.15429,-10.36328 0.10937,2.26953 0,8.09375 -4.14258,0 z"
         style="font-size:28px;fill:url(#linearGradient4132);fill-opacity:1;font-family:Tw Cen MT Condensed Extra Bold;-inkscape-font-specification:Tw Cen MT Condensed Extra Bold"
         id="path3087" />
      <path
         inkscape:connector-curvature="0"
         d="m 535.85486,800.81458 4.18359,0 5.26367,10.52734 -0.15039,-1.96875 0,-8.55859 4.14258,0 0,18.25195 -4.25195,0 -5.1543,-10.36328 0.10938,2.26953 0,8.09375 -4.14258,0 z"
         style="font-size:28px;fill:url(#linearGradient4134);fill-opacity:1;font-family:Tw Cen MT Condensed Extra Bold;-inkscape-font-specification:Tw Cen MT Condensed Extra Bold"
         id="path3089" />
      <path
         inkscape:connector-curvature="0"
         d="m 553.24548,800.81458 8.38086,0 0,3.88281 -4.23828,0 0,3.36328 3.67774,0 0,3.78711 -3.67774,0 0,3.32226 4.26563,0 0,3.89649 -8.40821,0 z"
         style="font-size:28px;fill:url(#linearGradient4136);fill-opacity:1;font-family:Tw Cen MT Condensed Extra Bold;-inkscape-font-specification:Tw Cen MT Condensed Extra Bold"
         id="path3091" />
      <path
         inkscape:connector-curvature="0"
         d="m 564.94861,800.81458 4.82617,0 c 1.95051,10e-6 3.49088,0.50132 4.62109,1.5039 1.1302,1.00262 1.6953,2.36525 1.69532,4.08789 -2e-5,0.88413 -0.21421,1.73862 -0.64258,2.56348 -0.4284,0.82488 -1.05275,1.44695 -1.87305,1.86621 l 3.3086,8.23047 -4.375,0 -3.34961,-8.3125 -0.0684,0 0,8.3125 -4.14258,0 z m 4.14258,3.52734 0,4.33398 c 1.83202,-0.0364 2.74803,-0.67902 2.74804,-1.92773 -1e-5,-0.84764 -0.21192,-1.45376 -0.63574,-1.81836 -0.42383,-0.36457 -1.12794,-0.56053 -2.1123,-0.58789 z"
         style="font-size:28px;fill:url(#linearGradient4138);fill-opacity:1;font-family:Tw Cen MT Condensed Extra Bold;-inkscape-font-specification:Tw Cen MT Condensed Extra Bold"
         id="path3093" />
      <path
         inkscape:connector-curvature="0"
         d="m 579.22205,818.72473 0,-4.25195 c 1.31249,0.76563 2.41536,1.14844 3.30859,1.14844 0.51953,0 0.92968,-0.14356 1.23047,-0.43067 0.30077,-0.2871 0.45116,-0.66764 0.45117,-1.1416 -10e-6,-0.36458 -0.12077,-0.70637 -0.3623,-1.02539 -0.24155,-0.319 -0.65854,-0.70637 -1.25098,-1.16211 -1.43099,-1.09374 -2.46778,-2.1123 -3.11035,-3.05566 -0.64258,-0.94335 -0.96387,-1.99381 -0.96387,-3.15137 0,-1.57681 0.49674,-2.86196 1.49023,-3.85547 0.99349,-0.99347 2.27865,-1.49022 3.85547,-1.49023 1.16666,10e-6 2.32421,0.25067 3.47266,0.75195 l 0,4.08789 c -1.23048,-0.67447 -2.22852,-1.0117 -2.99414,-1.01172 -0.51042,2e-5 -0.91374,0.12534 -1.20996,0.37598 -0.29623,0.25066 -0.44434,0.59474 -0.44434,1.03222 0,0.76564 0.68815,1.62697 2.06446,2.58399 0.8203,0.56511 1.652,1.36036 2.49511,2.38574 0.84309,1.0254 1.26464,2.21257 1.26465,3.56152 -10e-6,1.57683 -0.55144,2.88249 -1.6543,3.917 -1.10287,1.0345 -2.50196,1.55175 -4.19726,1.55175 -1.15756,0 -2.30599,-0.27343 -3.44531,-0.82031 z"
         style="font-size:28px;fill:url(#linearGradient4140);fill-opacity:1;font-family:Tw Cen MT Condensed Extra Bold;-inkscape-font-specification:Tw Cen MT Condensed Extra Bold"
         id="path3095" />
    </g>
    <g
       style="font-size:64px;font-style:normal;font-variant:normal;font-weight:normal;font-stretch:normal;line-height:125%;letter-spacing:0px;word-spacing:0px;fill:#000000;fill-opacity:1;stroke:none;font-family:Levenim MT;-inkscape-font-specification:Levenim MT;opacity:0.8"
       id="text3091">
      <path
         d="m 385.74655,827.80005 3.12598,0 1.84765,8.64746 0.043,0 1.67578,-8.64746 2.83594,0 1.69727,8.55078 0.043,0 1.76171,-8.55078 3.21192,0 -3.4375,14.34082 -2.94336,0 -1.36426,-6.41309 c -0.1504,-0.70181 -0.27572,-1.37857 -0.37597,-2.03027 l -0.043,0 c -0.17905,1.11003 -0.30795,1.85124 -0.38672,2.22363 l -1.35352,6.21973 -2.90039,0 z"
         style="fill:#c9c9c9;fill-opacity:1"
         id="path3041" />
      <path
         d="m 403.73972,827.80005 6.58496,0 0,3.05078 -3.33008,0 0,2.64258 2.88965,0 0,2.97558 -2.88965,0 0,2.61036 3.35156,0 0,3.06152 -6.60644,0 z"
         style="fill:#c9c9c9;fill-opacity:1"
         id="path3043" />
      <path
         d="m 419.61276,825.19263 4.48145,0 c 1.81119,10e-6 3.24152,0.46551 4.29101,1.39648 1.04947,0.93101 1.57421,2.1963 1.57422,3.7959 -10e-6,0.82097 -0.1989,1.61443 -0.59668,2.38037 -0.3978,0.76596 -0.97755,1.3436 -1.73926,1.73291 l 3.07227,7.64258 -4.0625,0 -3.11035,-7.71875 -0.0635,0 0,7.71875 -3.84668,0 z m 3.84668,3.27539 0,4.02441 c 1.70117,-0.0338 2.55175,-0.63052 2.55176,-1.79004 -10e-6,-0.78709 -0.19679,-1.34992 -0.59033,-1.68847 -0.39356,-0.33853 -1.04737,-0.5205 -1.96143,-0.5459 z"
         style="font-size:26px;fill:#ff4200;fill-opacity:1"
         id="path3045" />
      <path
         d="m 432.76511,825.19263 3.94824,0 0,11.93359 c -10e-6,0.5586 0.1481,1.00082 0.44433,1.32666 0.29622,0.32585 0.69401,0.48877 1.19336,0.48877 0.51627,0 0.92464,-0.1735 1.2251,-0.52051 0.30045,-0.347 0.45068,-0.82519 0.45068,-1.43457 l 0,-11.79394 3.92286,0 0,11.12109 c -2e-5,1.51498 -0.19891,2.7295 -0.59668,3.64356 -0.3978,0.91406 -0.9839,1.58479 -1.7583,2.0122 -0.77443,0.42741 -1.85564,0.64112 -3.24366,0.64112 -2.04818,0 -3.49121,-0.52474 -4.3291,-1.57422 -0.83789,-1.04948 -1.25684,-2.82259 -1.25683,-5.31934 z"
         style="font-size:26px;fill:#ff4200;fill-opacity:1"
         id="path3047" />
      <path
         d="m 447.44089,825.19263 3.88476,0 4.8877,9.77539 -0.13965,-1.82813 0,-7.94726 3.84668,0 0,16.94824 -3.94824,0 -4.78614,-9.62305 0.10157,2.10742 0,7.51563 -3.84668,0 z"
         style="font-size:26px;fill:#ff4200;fill-opacity:1"
         id="path3049" />
      <path
         d="m 467.64987,827.80005 7.7666,0 0,3.27637 -2.24511,0 0,11.06445 -3.29786,0 0,-11.06445 -2.22363,0 z"
         style="fill:#c4c4c4;fill-opacity:1"
         id="path3051" />
      <path
         d="m 477.44675,827.80005 3.25488,0 0,5.31738 2.88965,0 0,-5.31738 3.25488,0 0,14.34082 -3.25488,0 0,-5.96191 -2.88965,0 0,5.96191 -3.25488,0 z"
         style="fill:#c4c4c4;fill-opacity:1"
         id="path3054" />
      <path
         d="m 490.02585,827.80005 3.25488,0 0,14.34082 -3.25488,0 z"
         style="fill:#c4c4c4;fill-opacity:1"
         id="path3056" />
      <path
         d="m 496.4819,841.87231 0,-3.34082 c 1.03125,0.60157 1.89779,0.90235 2.59961,0.90235 0.4082,0 0.73047,-0.11279 0.9668,-0.33838 0.23632,-0.22558 0.35449,-0.52457 0.35449,-0.89697 0,-0.28646 -0.0949,-0.55501 -0.28467,-0.80567 -0.18978,-0.25064 -0.51742,-0.55501 -0.98291,-0.91308 -1.12435,-0.85937 -1.93896,-1.65966 -2.44384,-2.40088 -0.50489,-0.7412 -0.75733,-1.56656 -0.75733,-2.47608 0,-1.23892 0.3903,-2.24868 1.1709,-3.02929 0.7806,-0.78059 1.79036,-1.17089 3.0293,-1.1709 0.91666,10e-6 1.82616,0.19695 2.72851,0.59082 l 0,3.21191 c -0.9668,-0.52993 -1.75098,-0.79491 -2.35254,-0.79492 -0.40104,10e-6 -0.71794,0.0985 -0.95068,0.29541 -0.23275,0.19695 -0.34913,0.4673 -0.34912,0.81104 -10e-6,0.60157 0.54068,1.27833 1.62207,2.03027 0.64452,0.44402 1.29801,1.06885 1.96045,1.87451 0.66242,0.80567 0.99364,1.73845 0.99365,2.79834 -10e-6,1.23894 -0.43328,2.26481 -1.2998,3.07764 -0.86655,0.81282 -1.96583,1.21924 -3.29786,1.21924 -0.9095,0 -1.81185,-0.21485 -2.70703,-0.64454 z"
         style="fill:#c4c4c4;fill-opacity:1"
         id="path3058" />
      <path
         d="m 519.05124,838.75708 0,3.40527 c -0.68751,0.22201 -1.30339,0.33301 -1.84766,0.33301 -1.88347,0 -3.41065,-0.70719 -4.58154,-2.12158 -1.1709,-1.41439 -1.75635,-3.27457 -1.75635,-5.58057 0,-2.14126 0.59082,-3.90835 1.77246,-5.30127 1.18164,-1.39289 2.6748,-2.08934 4.4795,-2.08935 0.70181,10e-6 1.34634,0.0931 1.93359,0.27929 l 0,3.41602 c -0.62306,-0.20767 -1.2103,-0.31151 -1.76172,-0.31152 -0.84506,10e-6 -1.54688,0.38673 -2.10547,1.16015 -0.5586,0.77345 -0.83789,1.75815 -0.83789,2.9541 0,1.28907 0.28108,2.30779 0.84326,3.05616 0.56217,0.74837 1.31233,1.12256 2.25049,1.12256 0.45833,0 0.99544,-0.10742 1.61133,-0.32227 z"
         style="fill:#c4c4c4;fill-opacity:1"
         id="path3060" />
      <path
         d="m 525.81882,842.49536 c -1.73308,0 -3.05437,-0.66422 -3.96387,-1.99267 -0.90951,-1.32845 -1.36426,-3.24593 -1.36426,-5.75245 0,-2.31314 0.45654,-4.11603 1.36963,-5.40869 0.91308,-1.29263 2.18603,-1.93895 3.81885,-1.93896 1.74023,10e-6 3.07046,0.64812 3.99072,1.94433 0.92024,1.29624 1.38036,3.14747 1.38037,5.55371 -10e-6,2.40626 -0.45297,4.27361 -1.35888,5.60206 -0.90594,1.32845 -2.19679,1.99267 -3.87256,1.99267 z m -0.11817,-11.83789 c -1.17448,10e-6 -1.76172,1.37859 -1.76172,4.13574 0,1.77605 0.1486,2.96127 0.44581,3.55567 0.29719,0.5944 0.72867,0.8916 1.29443,0.8916 0.60872,0 1.076,-0.2972 1.40185,-0.8916 0.32584,-0.5944 0.48877,-1.75814 0.48877,-3.49121 0,-2.80012 -0.62305,-4.20019 -1.86914,-4.2002 z"
         style="fill:#c4c4c4;fill-opacity:1"
         id="path3062" />
      <path
         d="m 533.39206,827.80005 3.34082,0 0,10.09766 c -10e-6,0.47266 0.12532,0.84684 0.37598,1.12255 0.25064,0.27572 0.58723,0.41358 1.00976,0.41358 0.43684,0 0.78238,-0.14681 1.03662,-0.44043 0.25423,-0.29362 0.38134,-0.69824 0.38135,-1.21387 l 0,-9.97949 3.31934,0 0,9.41016 c -10e-6,1.2819 -0.16831,2.30957 -0.50489,3.083 -0.33659,0.77344 -0.83253,1.34099 -1.48779,1.70264 -0.65528,0.36165 -1.57016,0.54248 -2.74463,0.54248 -1.73308,0 -2.9541,-0.44401 -3.66308,-1.33203 -0.70899,-0.88802 -1.06348,-2.38834 -1.06348,-4.50098 z"
         style="fill:#c4c4c4;fill-opacity:1"
         id="path3064" />
      <path
         d="m 545.81003,827.80005 3.28711,0 4.13574,8.27148 -0.11816,-1.54687 0,-6.72461 3.25488,0 0,14.34082 -3.34082,0 -4.04981,-8.14258 0.0859,1.7832 0,6.35938 -3.25488,0 z"
         style="fill:#c4c4c4;fill-opacity:1"
         id="path3066" />
      <path
         d="m 558.39987,827.80005 7.7666,0 0,3.27637 -2.24511,0 0,11.06445 -3.29786,0 0,-11.06445 -2.22363,0 z"
         style="fill:#c4c4c4;fill-opacity:1"
         id="path3068" />
      <path
         d="m 568.19675,827.80005 3.79199,0 c 1.53254,10e-6 2.74283,0.39389 3.63086,1.18164 0.88801,0.78777 1.33202,1.85841 1.33203,3.21191 -10e-6,0.69467 -0.1683,1.36606 -0.50488,2.01416 -0.3366,0.64812 -0.82716,1.13689 -1.47168,1.46631 l 2.59961,6.4668 -3.4375,0 -2.63184,-6.53125 -0.0537,0 0,6.53125 -3.25488,0 z m 3.25488,2.77148 0,3.40528 c 1.43945,-0.0286 2.15917,-0.53352 2.15918,-1.51465 -10e-6,-0.66601 -0.16651,-1.14224 -0.49951,-1.42871 -0.33302,-0.28645 -0.88624,-0.44042 -1.65967,-0.46192 z"
         style="fill:#c4c4c4;fill-opacity:1"
         id="path3070" />
      <path
         d="m 578.04733,827.80005 3.65235,0 c 0.80924,2.06251 1.39648,3.65235 1.76172,4.76953 l 0.043,0 c 0.36523,-1.14582 0.94531,-2.73566 1.74024,-4.76953 l 3.73828,0 -3.8457,7.85254 0,6.48828 -3.29786,0 0,-6.48828 z"
         style="fill:#c4c4c4;fill-opacity:1"
         id="path3072" />
    </g>
  </g>
</svg>
