<?xml version="1.0" encoding="UTF-8" standalone="no"?>
<!-- Created with Inkscape (http://www.inkscape.org/) -->

<svg
   xmlns:dc="http://purl.org/dc/elements/1.1/"
   xmlns:cc="http://creativecommons.org/ns#"
   xmlns:rdf="http://www.w3.org/1999/02/22-rdf-syntax-ns#"
   xmlns:svg="http://www.w3.org/2000/svg"
   xmlns="http://www.w3.org/2000/svg"
   xmlns:xlink="http://www.w3.org/1999/xlink"
   xmlns:sodipodi="http://sodipodi.sourceforge.net/DTD/sodipodi-0.dtd"
   xmlns:inkscape="http://www.inkscape.org/namespaces/inkscape"
   sodipodi:docname="favicon.svg"
   inkscape:version="0.48.5 r10040"
   version="1.1"
   id="svg3135"
   height="64"
   width="64"
   inkscape:export-filename="C:\Users\Tanner\Desktop\freewheel\freewheel icon.png"
   inkscape:export-xdpi="600"
   inkscape:export-ydpi="600">
  <sodipodi:namedview
     id="base"
     pagecolor="#ffffff"
     bordercolor="#666666"
     borderopacity="1.0"
     inkscape:pageopacity="0.0"
     inkscape:pageshadow="2"
     inkscape:zoom="7.2309034"
     inkscape:cx="8.5358886"
     inkscape:cy="23.30226"
     inkscape:document-units="px"
     inkscape:current-layer="text3057"
     showgrid="false"
     inkscape:window-width="1680"
     inkscape:window-height="975"
     inkscape:window-x="-9"
     inkscape:window-y="-9"
     inkscape:window-maximized="1"
     fit-margin-top="0"
     fit-margin-left="0"
     fit-margin-right="0"
     fit-margin-bottom="0" />
  <defs
     id="defs3137">
    <marker
       inkscape:stockid="Arrow1Lend"
       orient="auto"
       refY="0.0"
       refX="0.0"
       id="Arrow1Lend"
       style="overflow:visible;">
      <path
         id="path3988"
         d="M 0.0,0.0 L 5.0,-5.0 L -12.5,0.0 L 5.0,5.0 L 0.0,0.0 z "
         style="fill-rule:evenodd;stroke:#000000;stroke-width:1.0pt;"
         transform="scale(0.8) rotate(180) translate(12.5,0)" />
    </marker>
    <linearGradient
       id="linearGradient11035">
      <stop
         id="stop11037"
         offset="0"
         style="stop-color:#ffffff;stop-opacity:1;" />
      <stop
         style="stop-color:#d4d4d4;stop-opacity:0.9285714;"
         offset="1"
         id="stop11045" />
    </linearGradient>
    <marker
       style="overflow:visible"
       id="Arrow1Send"
       refX="0"
       refY="0"
       orient="auto"
       inkscape:stockid="Arrow1Send">
      <path
         transform="matrix(-0.2,0,0,-0.2,-1.2,0)"
         style="fill-rule:evenodd;stroke:#000000;stroke-width:1pt;marker-start:none"
         d="M 0,0 5,-5 -12.5,0 5,5 0,0 z"
         id="path4007"
         inkscape:connector-curvature="0" />
    </marker>
    <marker
       style="overflow:visible"
       id="Arrow1Sstart"
       refX="0"
       refY="0"
       orient="auto"
       inkscape:stockid="Arrow1Sstart">
      <path
         transform="matrix(0.2,0,0,0.2,1.2,0)"
         style="fill-rule:evenodd;stroke:#000000;stroke-width:1pt;marker-start:none"
         d="M 0,0 5,-5 -12.5,0 5,5 0,0 z"
         id="path4004"
         inkscape:connector-curvature="0" />
    </marker>
    <marker
       style="overflow:visible"
       id="SquareS"
       refX="0"
       refY="0"
       orient="auto"
       inkscape:stockid="SquareS">
      <path
         transform="scale(0.2,0.2)"
         style="fill-rule:evenodd;stroke:#000000;stroke-width:1pt;marker-start:none"
         d="M -5,-5 -5,5 5,5 5,-5 -5,-5 z"
         id="path4069"
         inkscape:connector-curvature="0" />
    </marker>
    <marker
       style="overflow:visible"
       id="SemiCircleIn"
       refX="0"
       refY="0"
       orient="auto"
       inkscape:stockid="SemiCircleIn">
      <path
         transform="scale(0.6,0.6)"
         style="fill-rule:evenodd;stroke:#000000;stroke-width:1pt;marker-start:none;marker-end:none"
         d="m -0.37450702,-0.04569258 c 0,2.75999998 2.24000002,4.99999998 5.00000002,4.99999998 l 0,-10 c -2.76,0 -5.00000002,2.24 -5.00000002,5.00000002 z"
         id="path4171"
         inkscape:connector-curvature="0" />
    </marker>
    <marker
       style="overflow:visible"
       id="DotS"
       refX="0"
       refY="0"
       orient="auto"
       inkscape:stockid="DotS">
      <path
         transform="matrix(0.2,0,0,0.2,1.48,0.2)"
         style="fill-rule:evenodd;stroke:#000000;stroke-width:1pt;marker-start:none;marker-end:none"
         d="m -2.5,-1 c 0,2.76 -2.24,5 -5,5 -2.76,0 -5,-2.24 -5,-5 0,-2.76 2.24,-5 5,-5 2.76,0 5,2.24 5,5 z"
         id="path4060"
         inkscape:connector-curvature="0" />
    </marker>
    <marker
       style="overflow:visible"
       id="DiamondS"
       refX="0"
       refY="0"
       orient="auto"
       inkscape:stockid="DiamondS">
      <path
         transform="scale(0.2,0.2)"
         style="fill-rule:evenodd;stroke:#000000;stroke-width:1pt;marker-start:none"
         d="M 0,-7.0710768 -7.0710894,0 0,7.0710589 7.0710462,0 0,-7.0710768 z"
         id="path4078"
         inkscape:connector-curvature="0" />
    </marker>
    <marker
       style="overflow:visible"
       id="EmptyDiamondSend"
       refX="0"
       refY="0"
       orient="auto"
       inkscape:stockid="EmptyDiamondSend">
      <path
         transform="matrix(0.2,0,0,0.2,-1.2,0)"
         style="fill:#ffffff;fill-rule:evenodd;stroke:#000000;stroke-width:1pt;marker-start:none"
         d="M 0,-7.0710768 -7.0710894,0 0,7.0710589 7.0710462,0 0,-7.0710768 z"
         id="path4123"
         inkscape:connector-curvature="0" />
    </marker>
    <marker
       style="overflow:visible"
       id="CurveOut"
       refX="0"
       refY="0"
       orient="auto"
       inkscape:stockid="CurveOut">
      <path
         transform="scale(0.6,0.6)"
         style="fill:none;stroke:#000000;stroke-width:1pt;marker-start:none;marker-end:none"
         d="m -5.4129913,-5.0456926 c 2.76,0 4.99999999,2.24 4.99999999,5.00000002 0,2.75999998 -2.23999999,4.99999998 -4.99999999,4.99999998"
         id="path4180"
         inkscape:connector-curvature="0" />
    </marker>
    <marker
       style="overflow:visible"
       id="Tail"
       refX="0"
       refY="0"
       orient="auto"
       inkscape:stockid="Tail">
      <g
         transform="scale(-1.2,-1.2)"
         id="g4028">
        <path
           style="fill:none;stroke:#000000;stroke-width:0.80000001;stroke-linecap:round;marker-start:none;marker-end:none"
           d="M -3.8048674,-3.9585227 0.54352094,0"
           id="path4030"
           inkscape:connector-curvature="0" />
        <path
           style="fill:none;stroke:#000000;stroke-width:0.80000001;stroke-linecap:round;marker-start:none;marker-end:none"
           d="M -1.2866832,-3.9585227 3.0617053,0"
           id="path4032"
           inkscape:connector-curvature="0" />
        <path
           style="fill:none;stroke:#000000;stroke-width:0.80000001;stroke-linecap:round;marker-start:none;marker-end:none"
           d="M 1.3053582,-3.9585227 5.6537466,0"
           id="path4034"
           inkscape:connector-curvature="0" />
        <path
           style="fill:none;stroke:#000000;stroke-width:0.80000001;stroke-linecap:round;marker-start:none;marker-end:none"
           d="M -3.8048674,4.1775838 0.54352094,0.21974226"
           id="path4036"
           inkscape:connector-curvature="0" />
        <path
           style="fill:none;stroke:#000000;stroke-width:0.80000001;stroke-linecap:round;marker-start:none;marker-end:none"
           d="M -1.2866832,4.1775838 3.0617053,0.21974226"
           id="path4038"
           inkscape:connector-curvature="0" />
        <path
           style="fill:none;stroke:#000000;stroke-width:0.80000001;stroke-linecap:round;marker-start:none;marker-end:none"
           d="M 1.3053582,4.1775838 5.6537466,0.21974226"
           id="path4040"
           inkscape:connector-curvature="0" />
      </g>
    </marker>
    <marker
       style="overflow:visible"
       id="Arrow1Mend"
       refX="0"
       refY="0"
       orient="auto"
       inkscape:stockid="Arrow1Mend">
      <path
         transform="matrix(-0.4,0,0,-0.4,-4,0)"
         style="fill-rule:evenodd;stroke:#000000;stroke-width:1pt;marker-start:none"
         d="M 0,0 5,-5 -12.5,0 5,5 0,0 z"
         id="path4001"
         inkscape:connector-curvature="0" />
    </marker>
    <marker
       style="overflow:visible"
       id="Arrow2Mend"
       refX="0"
       refY="0"
       orient="auto"
       inkscape:stockid="Arrow2Mend">
      <path
         transform="scale(-0.6,-0.6)"
         d="M 8.7185878,4.0337352 -2.2072895,0.01601326 8.7185884,-4.0017078 c -1.7454984,2.3720609 -1.7354408,5.6174519 -6e-7,8.035443 z"
         style="font-size:12px;fill-rule:evenodd;stroke-width:0.625;stroke-linejoin:round"
         id="path4019"
         inkscape:connector-curvature="0" />
    </marker>
    <filter
       y="-0.25"
       x="-0.25"
       height="1.5"
       width="1.5"
       inkscape:label="Drop shadow"
       id="filter6693"
       color-interpolation-filters="sRGB">
      <feGaussianBlur
         result="blur"
         stdDeviation="0.1"
         in="SourceAlpha"
         id="feGaussianBlur6695" />
      <feColorMatrix
         values="1 0 0 0 0 0 1 0 0 0 0 0 1 0 0 0 0 0 0.4 0 "
         type="matrix"
         result="bluralpha"
         id="feColorMatrix6697" />
      <feOffset
         result="offsetBlur"
         dy="2"
         dx="1.9"
         in="bluralpha"
         id="feOffset6699" />
      <feMerge
         id="feMerge6701">
        <feMergeNode
           in="offsetBlur"
           id="feMergeNode6703" />
        <feMergeNode
           in="SourceGraphic"
           id="feMergeNode6705" />
      </feMerge>
    </filter>
    <filter
       y="-0.25"
       x="-0.25"
       height="1.5"
       width="1.5"
       inkscape:label="Drop shadow"
       id="filter6945"
       color-interpolation-filters="sRGB">
      <feGaussianBlur
         result="blur"
         stdDeviation="0.1"
         in="SourceAlpha"
         id="feGaussianBlur6947" />
      <feColorMatrix
         values="1 0 0 0 0 0 1 0 0 0 0 0 1 0 0 0 0 0 0.4 0 "
         type="matrix"
         result="bluralpha"
         id="feColorMatrix6949" />
      <feOffset
         result="offsetBlur"
         dy="2.6"
         dx="2.6"
         in="bluralpha"
         id="feOffset6951" />
      <feMerge
         id="feMerge6953">
        <feMergeNode
           in="offsetBlur"
           id="feMergeNode6955" />
        <feMergeNode
           in="SourceGraphic"
           id="feMergeNode6957" />
      </feMerge>
    </filter>
    <clipPath
       clipPathUnits="userSpaceOnUse"
       id="clipPath11840">
      <rect
         style="fill:#ffffff;fill-opacity:1;fill-rule:evenodd;stroke:none"
         id="rect11842"
         width="852.56879"
         height="777.81744"
         x="-54.548248"
         y="-38.602581" />
    </clipPath>
    <radialGradient
       inkscape:collect="always"
       xlink:href="#linearGradient11035"
       id="radialGradient3136"
       gradientUnits="userSpaceOnUse"
       gradientTransform="matrix(1,0,0,0.66834173,0,68.299585)"
       cx="387.85715"
       cy="205.93361"
       fx="387.85715"
       fy="205.93361"
       r="142.14285" />
    <clipPath
       clipPathUnits="userSpaceOnUse"
       id="clipPath4090">
      <rect
         style="fill:#b3b3b3;fill-opacity:1;stroke:none"
         id="rect4092"
         width="180.64085"
         height="93.803223"
         x="72.113785"
         y="-42.143574" />
    </clipPath>
  </defs>
  <metadata
     id="metadata3140">
    <rdf:RDF>
      <cc:Work
         rdf:about="">
        <dc:format>image/svg+xml</dc:format>
        <dc:type
           rdf:resource="http://purl.org/dc/dcmitype/StillImage" />
        <dc:title />
      </cc:Work>
    </rdf:RDF>
  </metadata>
  <g
     id="layer1"
     inkscape:groupmode="layer"
     inkscape:label="Layer 1"
     transform="translate(-58.588837,-533.79348)">
    <path
       style="fill:#000000;fill-opacity:1;stroke:none"
       clip-path="none"
       d="m 114.86035,561.76733 c 0.51548,0.47093 -0.80211,2.25346 -0.33527,2.77265 0.46684,0.51918 2.37885,-0.60227 2.79256,-0.0398 0.4137,0.56245 -1.22633,2.05367 -0.86975,2.65396 0.35659,0.60029 2.45064,-0.1266 2.74667,0.50574 0.29603,0.63235 -1.60341,1.77497 -1.37079,2.43329 0.23262,0.65832 2.42825,0.35392 2.59522,1.03187 0.16697,0.67795 -1.91888,1.42805 -1.81916,2.1191 0.0997,0.69106 2.31254,0.82085 2.34404,1.51835 0.0315,0.6975 -2.16061,1.02626 -2.19762,1.72349 -0.037,0.69722 2.10797,1.25623 2.00279,1.94647 -0.10517,0.69024 -2.31931,0.58502 -2.49163,1.26163 -0.17233,0.67661 1.82239,1.64334 1.58457,2.2998 -0.23781,0.65646 -2.38887,0.12131 -2.68989,0.7513 -0.30101,0.62999 1.46677,1.96729 1.10546,2.56474 -0.36132,0.59745 -2.36664,-0.34707 -2.78478,0.21209 -0.41813,0.55916 1.05479,2.21565 0.58386,2.73113 -0.47093,0.51548 -2.25345,-0.80211 -2.77264,-0.33527 -0.51919,0.46684 0.60227,2.37885 0.0398,2.79255 -0.56244,0.41371 -2.05367,-1.22632 -2.65396,-0.86974 -0.60029,0.35658 0.12661,2.45064 -0.50574,2.74667 -0.63235,0.29602 -1.77497,-1.60342 -2.43329,-1.3708 -0.65832,0.23262 -0.35392,2.42825 -1.03187,2.59523 -0.67795,0.16697 -1.42805,-1.91889 -2.1191,-1.81917 -0.69105,0.0997 -0.82085,2.31255 -1.51835,2.34405 -0.6975,0.0315 -1.02625,-2.16061 -1.72348,-2.19763 -0.69723,-0.037 -1.25624,2.10798 -1.946477,2.0028 -0.690242,-0.10518 -0.585022,-2.31931 -1.261632,-2.49164 -0.67661,-0.17232 -1.64334,1.82239 -2.2998,1.58458 -0.65646,-0.23782 -0.1213,-2.38888 -0.75129,-2.68989 -0.62999,-0.30102 -1.9673,1.46677 -2.56475,1.10545 -0.59745,-0.36131 0.34707,-2.36664 -0.21209,-2.78477 -0.55916,-0.41814 -2.21564,1.05479 -2.73112,0.58386 -0.51549,-0.47093 0.80211,-2.25346 0.33527,-2.77265 -0.46685,-0.51918 -2.37886,0.60227 -2.79256,0.0398 -0.4137,-0.56245 1.22633,-2.05367 0.86974,-2.65396 -0.35658,-0.60029 -2.45063,0.1266 -2.74666,-0.50575 -0.29603,-0.63234 1.60341,-1.77496 1.37079,-2.43328 -0.23262,-0.65832 -2.42825,-0.35392 -2.59522,-1.03187 -0.16698,-0.67795 1.91888,-1.42805 1.81916,-2.1191 -0.0997,-0.69106 -2.31254,-0.82086 -2.34405,-1.51835 -0.0315,-0.6975 2.16061,-1.02626 2.19763,-1.72349 0.037,-0.69722 -2.10797,-1.25623 -2.00279,-1.94647 0.10517,-0.69025 2.3193,-0.58502 2.49163,-1.26163 0.17233,-0.67661 -1.82239,-1.64334 -1.58457,-2.2998 0.23781,-0.65646 2.38887,-0.12131 2.68989,-0.7513 0.30101,-0.62999 -1.46677,-1.96729 -1.10546,-2.56474 0.36132,-0.59745 2.36664,0.34707 2.78478,-0.21209 0.41813,-0.55916 -1.05479,-2.21565 -0.58386,-2.73113 0.47093,-0.51548 2.25345,0.80211 2.77264,0.33527 0.51919,-0.46684 -0.60227,-2.37885 -0.0398,-2.79255 0.56244,-0.41371 2.05367,1.22632 2.65396,0.86974 0.60028,-0.35658 -0.12661,-2.45064 0.50574,-2.74667 0.63235,-0.29602 1.77496,1.60342 2.43328,1.3708 0.65832,-0.23262 0.35393,-2.42825 1.03188,-2.59523 0.67795,-0.16697 1.428052,1.91889 2.119102,1.81917 0.691047,-0.0997 0.820847,-2.31255 1.518347,-2.34405 0.6975,-0.0315 1.02625,2.16061 1.72348,2.19763 0.69723,0.037 1.25623,-2.10798 1.94648,-2.0028 0.69024,0.10518 0.58502,2.31931 1.26163,2.49164 0.67661,0.17232 1.64334,-1.82239 2.2998,-1.58458 0.65646,0.23782 0.1213,2.38888 0.75129,2.68989 0.62999,0.30102 1.96729,-1.46677 2.56475,-1.10545 0.59745,0.36131 -0.34708,2.36664 0.21208,2.78477 0.55916,0.41814 2.21565,-1.05479 2.73113,-0.58386 z"
       id="path4051"
       inkscape:connector-curvature="0" />
    <text
       sodipodi:linespacing="125%"
       id="text10971"
       y="158.79076"
       x="117.14286"
       style="font-size:20px;font-style:normal;font-variant:normal;font-weight:bold;font-stretch:normal;line-height:125%;letter-spacing:0px;word-spacing:0px;fill:#000000;fill-opacity:1;stroke:none;font-family:Arial;-inkscape-font-specification:Arial Bold"
       xml:space="preserve"><tspan
         y="158.79076"
         x="117.14286"
         id="tspan10973"
         sodipodi:role="line" /></text>
    <g
       style="font-size:48px;font-style:normal;font-variant:normal;font-weight:normal;font-stretch:normal;line-height:125%;letter-spacing:0px;word-spacing:0px;fill:#000000;fill-opacity:1;stroke:none;font-family:Tw Cen MT Condensed Extra Bold;-inkscape-font-specification:Tw Cen MT Condensed Extra Bold"
       id="text3057"
       transform="translate(-0.41488592,-1.6595437)">
      <path
         d="m 84.09827,572.62642 -18.437276,0 0,22.49287 -4.554724,0 0,-45.89044 22.992,0 0,4.52354 -18.437276,0 0,14.3505 18.437276,0 z"
         style="font-size:60px;font-family:Levenim MT;-inkscape-font-specification:Levenim MT"
         id="path3123"
         inkscape:connector-curvature="0" />
      <path
         d="m 115.94132,585.84288 c -2.82784,4.24188 -7.21621,6.36275 -13.16503,6.36275 -4.293509,0 -7.923153,-1.34494 -10.888942,-4.03494 -3.052024,-2.77597 -4.578026,-6.28503 -4.578023,-10.52671 -3e-6,-2.74174 0.685401,-5.2764 2.056225,-7.60422 1.370817,-2.32778 3.25461,-4.14692 5.651395,-5.45743 2.396767,-1.31049 5.078015,-1.96574 8.043915,-1.96574 3.8279,0 7.09538,1.02608 9.80259,3.07791 1.20695,0.9139 2.2329,2.07786 3.07787,3.49174 l -2.87093,1.78456 c -2.48302,-3.29333 -5.87127,-4.93995 -10.16471,-4.93998 -3.327971,3e-5 -6.138569,1.0517 -8.43189,3.15542 -2.345052,2.17265 -3.517572,4.90556 -3.517565,8.19897 -7e-6,2.06915 0.525901,4.00467 1.577725,5.80659 1.051826,1.80202 2.482983,3.20295 4.293517,4.20295 1.81051,1.00021 3.845173,1.5002 6.104083,1.5002 4.13819,0 7.51781,-1.64675 10.13884,-4.94005 z"
         style="font-size:60px;fill:#ffffff;font-family:Levenim MT;-inkscape-font-specification:Levenim MT"
         id="path3125"
         inkscape:connector-curvature="0" />
    </g>
  </g>
</svg>
